<svg width="30" height="30" viewBox="0 0 30 30" fill="none" xmlns="http://www.w3.org/2000/svg">
<path d="M24.2805 5.72693C23.0639 4.49832 21.6165 3.52219 20.0216 2.85462C18.4266 2.18705 16.7154 1.84121 14.9864 1.83695C13.2574 1.8327 11.5445 2.17012 9.94631 2.82982C8.34807 3.48953 6.89594 4.45852 5.67332 5.68114C4.45071 6.90375 3.48172 8.35589 2.82201 9.95412C2.1623 11.5524 1.82489 13.2652 1.82914 14.9942C1.8334 16.7232 2.17924 18.4344 2.84681 20.0294C3.51437 21.6243 4.49051 23.0717 5.71912 24.2883C6.9357 25.5169 8.38305 26.493 9.97802 27.1606C11.573 27.8281 13.2841 28.174 15.0132 28.1782C16.7422 28.1825 18.455 27.8451 20.0533 27.1854C21.6515 26.5257 23.1036 25.5567 24.3262 24.3341C25.5489 23.1114 26.5179 21.6593 27.1776 20.0611C27.8373 18.4628 28.1747 16.75 28.1704 15.021C28.1662 13.2919 27.8203 11.5808 27.1528 9.98583C26.4852 8.39086 25.5091 6.94351 24.2805 5.72693ZM3.74979 15.0076C3.74937 14.0119 3.88138 13.0206 4.14236 12.0597C4.57244 12.9855 5.19705 13.7853 5.62186 14.7351C6.17088 15.9562 7.6451 15.6176 8.29607 16.6875C8.87381 17.6373 8.25682 18.8385 8.68924 19.8322C9.0033 20.5535 9.74393 20.7111 10.2549 21.2385C10.7769 21.7705 10.7658 22.4994 10.8455 23.1931C10.9354 24.0083 11.0813 24.8162 11.282 25.6113C11.282 25.6172 11.282 25.6236 11.2867 25.6295C6.90213 24.0896 3.74979 19.9101 3.74979 15.0076ZM14.9998 26.2576C14.3715 26.2574 13.7443 26.2049 13.1248 26.1006C13.1312 25.9418 13.1342 25.7935 13.15 25.6904C13.2924 24.7588 13.7588 23.8476 14.3881 23.1504C15.0097 22.4625 15.8617 21.9972 16.3867 21.2168C16.9012 20.4551 17.0553 19.4297 16.8431 18.5396C16.5308 17.2248 14.7443 16.7859 13.781 16.0728C13.2273 15.6627 12.7346 15.0287 12.0074 14.9771C11.6722 14.9537 11.3916 15.0258 11.0594 14.9402C10.7547 14.8611 10.5156 14.6971 10.191 14.7398C9.58455 14.8195 9.20193 15.4676 8.55037 15.3797C7.93221 15.2971 7.29529 14.5734 7.15467 13.9846C6.9742 13.2275 7.57303 12.982 8.21463 12.9146C8.4824 12.8865 8.78299 12.856 9.04022 12.9545C9.37889 13.0799 9.53885 13.4115 9.84295 13.5791C10.4131 13.892 10.5285 13.3922 10.4412 12.8859C10.3105 12.1277 10.1582 11.8189 10.8344 11.2969C11.3031 10.9371 11.7039 10.6769 11.6289 10.0306C11.5844 9.65096 11.3763 9.47928 11.5703 9.10135C11.7174 8.81365 12.1211 8.55408 12.3842 8.3824C13.0633 7.93943 15.2933 7.97225 14.3822 6.7324C14.1144 6.36854 13.6205 5.71815 13.1517 5.62908C12.5658 5.51834 12.3056 6.17225 11.8972 6.46053C11.4754 6.75877 10.6539 7.09744 10.2314 6.63631C9.66307 6.0158 10.6082 5.81248 10.8174 5.37889C10.914 5.17674 10.8174 4.89608 10.6545 4.63182C10.8658 4.54275 11.0806 4.46014 11.299 4.38397C11.4359 4.48504 11.5982 4.54592 11.7678 4.55975C12.1597 4.58553 12.5295 4.37342 12.8717 4.64061C13.2513 4.93357 13.525 5.30389 14.0289 5.39529C14.5164 5.48377 15.0326 5.19959 15.1533 4.70037C15.2265 4.39686 15.1533 4.07635 15.083 3.76287C17.2744 3.77548 19.4138 4.43177 21.2353 5.65018C21.1181 5.60565 20.9781 5.61092 20.8053 5.69119C20.4496 5.85643 19.9457 6.27713 19.9041 6.69432C19.8566 7.16775 20.5551 7.23455 20.8867 7.23455C21.3847 7.23455 21.8892 7.0119 21.7287 6.4365C21.659 6.1869 21.564 5.92733 21.4111 5.77029C21.7787 6.02539 22.1309 6.30204 22.4658 6.59881C22.4605 6.60408 22.4553 6.60877 22.45 6.61463C22.1125 6.96619 21.7205 7.24451 21.4896 7.67225C21.3267 7.97342 21.1433 8.11639 20.8135 8.19432C20.6318 8.23709 20.4244 8.25291 20.2721 8.37479C19.8478 8.70877 20.0892 9.5115 20.4912 9.75232C20.9992 10.0564 21.7527 9.91346 22.1359 9.47928C22.4353 9.13943 22.6117 8.5494 23.1502 8.54998C23.3872 8.54949 23.615 8.64231 23.7842 8.80838C24.0068 9.03924 23.9629 9.25486 24.0103 9.54314C24.0941 10.0553 24.5459 9.77752 24.8207 9.51912C25.021 9.87562 25.2017 10.2428 25.3621 10.6189C25.0597 11.0543 24.8195 11.5289 24.0924 11.0215C23.657 10.7174 23.3892 10.2762 22.8426 10.139C22.365 10.0219 21.8758 10.1437 21.4041 10.2252C20.8679 10.3183 20.2322 10.3594 19.8256 10.7654C19.4324 11.1568 19.2244 11.6806 18.806 12.0738C17.9969 12.8355 17.6553 13.667 18.1791 14.7439C18.683 15.7793 19.7371 16.3412 20.8744 16.2674C21.9918 16.1929 23.1525 15.5449 23.1203 17.1685C23.1086 17.7433 23.2287 18.1412 23.4051 18.675C23.5685 19.1672 23.5574 19.6441 23.5949 20.1521C23.6306 20.747 23.7236 21.337 23.8726 21.914C22.8224 23.2663 21.477 24.3605 19.9392 25.1133C18.4014 25.8661 16.7119 26.2575 14.9998 26.2576Z" fill="url(#paint0_linear_887_378)"/>
<defs>
<linearGradient id="paint0_linear_887_378" x1="14.9741" y1="-7.84213" x2="14.9741" y2="36.9587" gradientUnits="userSpaceOnUse">
<stop stop-color="#E9CD7E"/>
<stop offset="0.911673" stop-color="#B09040"/>
<stop offset="1" stop-color="#685830"/>
</linearGradient>
</defs>
</svg>
