<svg width="30" height="30" viewBox="0 0 30 30" fill="none" xmlns="http://www.w3.org/2000/svg">
<g clip-path="url(#clip0_887_385)">
<path d="M15 0C16.377 0 17.7051 0.175781 18.9844 0.527344C20.2637 0.878906 21.46 1.38184 22.5732 2.03613C23.6865 2.69043 24.6973 3.47168 25.6055 4.37988C26.5137 5.28809 27.2949 6.30371 27.9492 7.42676C28.6035 8.5498 29.1064 9.74609 29.458 11.0156C29.8096 12.2852 29.9902 13.6133 30 15C30 16.377 29.8242 17.7051 29.4727 18.9844C29.1211 20.2637 28.6182 21.46 27.9639 22.5732C27.3096 23.6865 26.5283 24.6973 25.6201 25.6055C24.7119 26.5137 23.6963 27.2949 22.5732 27.9492C21.4502 28.6035 20.2539 29.1064 18.9844 29.458C17.7148 29.8096 16.3867 29.9902 15 30C14.4824 30 13.999 29.9023 13.5498 29.707C13.1006 29.5117 12.7051 29.2432 12.3633 28.9014C12.0215 28.5596 11.7529 28.1641 11.5576 27.7148C11.3623 27.2656 11.2598 26.7773 11.25 26.25C11.25 25.7715 11.2939 25.3564 11.3818 25.0049C11.4697 24.6533 11.5869 24.3262 11.7334 24.0234C11.8799 23.7207 12.0312 23.4473 12.1875 23.2031C12.3438 22.959 12.4951 22.7051 12.6416 22.4414C12.7881 22.1777 12.9004 21.9043 12.9785 21.6211C13.0566 21.3379 13.1055 21.0059 13.125 20.625C13.125 20.1172 13.0273 19.6338 12.832 19.1748C12.6367 18.7158 12.3682 18.3203 12.0264 17.9883C11.6846 17.6562 11.2842 17.3877 10.8252 17.1826C10.3662 16.9775 9.88281 16.875 9.375 16.875C9.00391 16.875 8.67676 16.9189 8.39355 17.0068C8.11035 17.0947 7.83691 17.2119 7.57324 17.3584C7.30957 17.5049 7.05078 17.6562 6.79688 17.8125C6.54297 17.9688 6.26953 18.1201 5.97656 18.2666C5.68359 18.4131 5.35645 18.5254 4.99512 18.6035C4.63379 18.6816 4.21875 18.7305 3.75 18.75C3.23242 18.75 2.74902 18.6523 2.2998 18.457C1.85059 18.2617 1.45508 17.9932 1.11328 17.6514C0.771484 17.3096 0.50293 16.9141 0.307617 16.4648C0.112305 16.0156 0.00976562 15.5273 0 15C0 13.623 0.175781 12.2949 0.527344 11.0156C0.878906 9.73633 1.38184 8.54004 2.03613 7.42676C2.69043 6.31348 3.47168 5.30273 4.37988 4.39453C5.28809 3.48633 6.30371 2.70508 7.42676 2.05078C8.5498 1.39648 9.74121 0.893555 11.001 0.541992C12.2607 0.19043 13.5938 0.00976562 15 0ZM15 28.125C16.2012 28.125 17.3584 27.9688 18.4717 27.6562C19.585 27.3438 20.6299 26.9043 21.6064 26.3379C22.583 25.7715 23.4717 25.083 24.2725 24.2725C25.0732 23.4619 25.7568 22.5781 26.3232 21.6211C26.8896 20.6641 27.334 19.6191 27.6562 18.4863C27.9785 17.3535 28.1348 16.1914 28.125 15C28.125 13.7988 27.9688 12.6416 27.6562 11.5283C27.3438 10.415 26.9043 9.37012 26.3379 8.39355C25.7715 7.41699 25.083 6.52832 24.2725 5.72754C23.4619 4.92676 22.5781 4.24316 21.6211 3.67676C20.6641 3.11035 19.6191 2.66602 18.4863 2.34375C17.3535 2.02148 16.1914 1.86523 15 1.875C13.7988 1.875 12.6416 2.03125 11.5283 2.34375C10.415 2.65625 9.37012 3.0957 8.39355 3.66211C7.41699 4.22852 6.52832 4.91699 5.72754 5.72754C4.92676 6.53809 4.24316 7.42188 3.67676 8.37891C3.11035 9.33594 2.66602 10.3809 2.34375 11.5137C2.02148 12.6465 1.86523 13.8086 1.875 15C1.875 15.2637 1.92383 15.5078 2.02148 15.7324C2.11914 15.957 2.25098 16.1523 2.41699 16.3184C2.58301 16.4844 2.7832 16.6211 3.01758 16.7285C3.25195 16.8359 3.49609 16.8848 3.75 16.875C4.12109 16.875 4.44824 16.8311 4.73145 16.7432C5.01465 16.6553 5.28809 16.5381 5.55176 16.3916C5.81543 16.2451 6.06934 16.0938 6.31348 15.9375C6.55762 15.7812 6.82617 15.6299 7.11914 15.4834C7.41211 15.3369 7.73926 15.2246 8.10059 15.1465C8.46191 15.0684 8.88672 15.0195 9.375 15C10.1562 15 10.8887 15.1465 11.5723 15.4395C12.2559 15.7324 12.8516 16.1328 13.3594 16.6406C13.8672 17.1484 14.2676 17.7441 14.5605 18.4277C14.8535 19.1113 15 19.8438 15 20.625C15 21.1035 14.9561 21.5234 14.8682 21.8848C14.7803 22.2461 14.6631 22.5732 14.5166 22.8662C14.3701 23.1592 14.2188 23.4277 14.0625 23.6719C13.9062 23.916 13.7549 24.1699 13.6084 24.4336C13.4619 24.6973 13.3496 24.9707 13.2715 25.2539C13.1934 25.5371 13.1445 25.8691 13.125 26.25C13.125 26.5137 13.1738 26.7578 13.2715 26.9824C13.3691 27.207 13.501 27.4023 13.667 27.5684C13.833 27.7344 14.0332 27.8711 14.2676 27.9785C14.502 28.0859 14.7461 28.1348 15 28.125ZM7.5 9.375C7.76367 9.375 8.00781 9.42383 8.23242 9.52148C8.45703 9.61914 8.65234 9.75098 8.81836 9.91699C8.98438 10.083 9.12109 10.2832 9.22852 10.5176C9.33594 10.752 9.38477 10.9961 9.375 11.25C9.375 11.5137 9.32617 11.7578 9.22852 11.9824C9.13086 12.207 8.99902 12.4023 8.83301 12.5684C8.66699 12.7344 8.4668 12.8711 8.23242 12.9785C7.99805 13.0859 7.75391 13.1348 7.5 13.125C7.23633 13.125 6.99219 13.0762 6.76758 12.9785C6.54297 12.8809 6.34766 12.749 6.18164 12.583C6.01562 12.417 5.87891 12.2168 5.77148 11.9824C5.66406 11.748 5.61523 11.5039 5.625 11.25C5.625 10.9863 5.67383 10.7422 5.77148 10.5176C5.86914 10.293 6.00098 10.0977 6.16699 9.93164C6.33301 9.76562 6.5332 9.62891 6.76758 9.52148C7.00195 9.41406 7.24609 9.36523 7.5 9.375ZM13.125 5.625C13.3887 5.625 13.6328 5.67383 13.8574 5.77148C14.082 5.86914 14.2773 6.00098 14.4434 6.16699C14.6094 6.33301 14.7461 6.5332 14.8535 6.76758C14.9609 7.00195 15.0098 7.24609 15 7.5C15 7.76367 14.9512 8.00781 14.8535 8.23242C14.7559 8.45703 14.624 8.65234 14.458 8.81836C14.292 8.98438 14.0918 9.12109 13.8574 9.22852C13.623 9.33594 13.3789 9.38477 13.125 9.375C12.8613 9.375 12.6172 9.32617 12.3926 9.22852C12.168 9.13086 11.9727 8.99902 11.8066 8.83301C11.6406 8.66699 11.5039 8.4668 11.3965 8.23242C11.2891 7.99805 11.2402 7.75391 11.25 7.5C11.25 7.23633 11.2988 6.99219 11.3965 6.76758C11.4941 6.54297 11.626 6.34766 11.792 6.18164C11.958 6.01562 12.1582 5.87891 12.3926 5.77148C12.627 5.66406 12.8711 5.61523 13.125 5.625ZM20.625 11.25C20.3613 11.25 20.1172 11.2012 19.8926 11.1035C19.668 11.0059 19.4727 10.874 19.3066 10.708C19.1406 10.542 19.0039 10.3418 18.8965 10.1074C18.7891 9.87305 18.7402 9.62891 18.75 9.375C18.75 9.11133 18.7988 8.86719 18.8965 8.64258C18.9941 8.41797 19.126 8.22266 19.292 8.05664C19.458 7.89062 19.6582 7.75391 19.8926 7.64648C20.127 7.53906 20.3711 7.49023 20.625 7.5C20.8887 7.5 21.1328 7.54883 21.3574 7.64648C21.582 7.74414 21.7773 7.87598 21.9434 8.04199C22.1094 8.20801 22.2461 8.4082 22.3535 8.64258C22.4609 8.87695 22.5098 9.12109 22.5 9.375C22.5 9.63867 22.4512 9.88281 22.3535 10.1074C22.2559 10.332 22.124 10.5273 21.958 10.6934C21.792 10.8594 21.5918 10.9961 21.3574 11.1035C21.123 11.2109 20.8789 11.2598 20.625 11.25ZM22.5 15C22.7637 15 23.0078 15.0488 23.2324 15.1465C23.457 15.2441 23.6523 15.376 23.8184 15.542C23.9844 15.708 24.1211 15.9082 24.2285 16.1426C24.3359 16.377 24.3848 16.6211 24.375 16.875C24.375 17.1387 24.3262 17.3828 24.2285 17.6074C24.1309 17.832 23.999 18.0273 23.833 18.1934C23.667 18.3594 23.4668 18.4961 23.2324 18.6035C22.998 18.7109 22.7539 18.7598 22.5 18.75C22.2363 18.75 21.9922 18.7012 21.7676 18.6035C21.543 18.5059 21.3477 18.374 21.1816 18.208C21.0156 18.042 20.8789 17.8418 20.7715 17.6074C20.6641 17.373 20.6152 17.1289 20.625 16.875C20.625 16.6113 20.6738 16.3672 20.7715 16.1426C20.8691 15.918 21.001 15.7227 21.167 15.5566C21.333 15.3906 21.5332 15.2539 21.7676 15.1465C22.002 15.0391 22.2461 14.9902 22.5 15ZM18.75 20.625C19.0137 20.625 19.2578 20.6738 19.4824 20.7715C19.707 20.8691 19.9023 21.001 20.0684 21.167C20.2344 21.333 20.3711 21.5332 20.4785 21.7676C20.5859 22.002 20.6348 22.2461 20.625 22.5C20.625 22.7637 20.5762 23.0078 20.4785 23.2324C20.3809 23.457 20.249 23.6523 20.083 23.8184C19.917 23.9844 19.7168 24.1211 19.4824 24.2285C19.248 24.3359 19.0039 24.3848 18.75 24.375C18.4863 24.375 18.2422 24.3262 18.0176 24.2285C17.793 24.1309 17.5977 23.999 17.4316 23.833C17.2656 23.667 17.1289 23.4668 17.0215 23.2324C16.9141 22.998 16.8652 22.7539 16.875 22.5C16.875 22.2363 16.9238 21.9922 17.0215 21.7676C17.1191 21.543 17.251 21.3477 17.417 21.1816C17.583 21.0156 17.7832 20.8789 18.0176 20.7715C18.252 20.6641 18.4961 20.6152 18.75 20.625Z" fill="url(#paint0_linear_887_385)"/>
</g>
<defs>
<linearGradient id="paint0_linear_887_385" x1="14.9708" y1="-11.0234" x2="14.9708" y2="40" gradientUnits="userSpaceOnUse">
<stop stop-color="#E9CD7E"/>
<stop offset="0.911673" stop-color="#B09040"/>
<stop offset="1" stop-color="#685830"/>
</linearGradient>
<clipPath id="clip0_887_385">
<rect width="30" height="30" fill="white"/>
</clipPath>
</defs>
</svg>
