<svg width="32" height="30" viewBox="0 0 32 30" fill="none" xmlns="http://www.w3.org/2000/svg">
<path d="M5.13317 6.62401C6.59906 6.62401 7.78734 5.43573 7.78734 3.96984C7.78734 2.50396 6.59906 1.31567 5.13317 1.31567C3.66728 1.31567 2.479 2.50396 2.479 3.96984C2.479 5.43573 3.66728 6.62401 5.13317 6.62401Z" stroke="#ACACAC" stroke-width="1.5"/>
<path d="M26.3666 6.62401C24.9007 6.62401 23.7124 5.43573 23.7124 3.96984C23.7124 2.50396 24.9007 1.31567 26.3666 1.31567C27.8325 1.31567 29.0207 2.50396 29.0207 3.96984C29.0207 5.43573 27.8325 6.62401 26.3666 6.62401Z" stroke="#ACACAC" stroke-width="1.5"/>
<path d="M10.4414 29.1843L8.45081 21.2218H3.47994C2.19416 21.2218 1.15186 20.1795 1.15186 18.8937C1.15186 18.6775 1.18205 18.4622 1.2415 18.2542L3.80602 9.27808" stroke="#ACACAC" stroke-width="1.5"/>
<path d="M21.0581 29.1843L23.0487 21.2218H28.0196C29.3054 21.2218 30.3477 20.1795 30.3477 18.8937C30.3477 18.6775 30.3176 18.4622 30.2582 18.2542L27.6935 9.27808" stroke="#ACACAC" stroke-width="1.5"/>
<path d="M7.78711 15.9136H23.7121" stroke="#ACACAC" stroke-width="1.5"/>
<path d="M15.75 15.9136V29.1844" stroke="#ACACAC" stroke-width="1.5"/>
</svg>
