<svg width="33" height="28" viewBox="0 0 33 28" fill="none" xmlns="http://www.w3.org/2000/svg">
<path d="M30.3708 23.0267C30.9272 23.0267 31.4608 22.8056 31.8543 22.4122C32.2477 22.0188 32.4687 21.4851 32.4687 20.9287V14.635C32.4686 13.964 32.202 13.3206 31.7275 12.8462L28.2729 9.3916H5.19583L1.74126 12.8462C1.26675 13.3206 1.00012 13.964 1 14.635V20.9287C1 21.4851 1.22103 22.0188 1.61447 22.4122C2.0079 22.8056 2.54151 23.0267 3.09792 23.0267H30.3708Z" stroke="#ACACAC" stroke-width="1.5" stroke-linecap="round" stroke-linejoin="round"/>
<path d="M5.1958 9.39167L7.60561 2.95806C7.82311 2.38221 8.21096 1.88632 8.71746 1.5365C9.22395 1.18668 9.82503 0.999529 10.4406 1H23.0281C23.6436 0.999725 24.2446 1.18695 24.7511 1.53675C25.2575 1.88655 25.6454 2.38232 25.8631 2.95806L28.2729 9.39167H5.1958Z" stroke="#ACACAC" stroke-width="1.5" stroke-linecap="round" stroke-linejoin="round"/>
<path d="M5.19583 9.39162L3.09792 7.2937H1" stroke="#ACACAC" stroke-width="1.5" stroke-linecap="round" stroke-linejoin="round"/>
<path d="M28.2729 9.39162L30.3709 7.2937H32.4688" stroke="#ACACAC" stroke-width="1.5" stroke-linecap="round" stroke-linejoin="round"/>
<path d="M3.09814 23.0271V25.125C3.09814 25.6814 3.31917 26.215 3.71261 26.6085C4.10605 27.0019 4.63966 27.2229 5.19606 27.2229C5.75246 27.2229 6.28608 27.0019 6.67951 26.6085C7.07295 26.215 7.29398 25.6814 7.29398 25.125V23.0271H3.09814Z" stroke="#ACACAC" stroke-width="1.5" stroke-linecap="round" stroke-linejoin="round"/>
<path d="M30.3706 23.0271V25.125C30.3706 25.6814 30.1496 26.215 29.7562 26.6085C29.3627 27.0019 28.8291 27.2229 28.2727 27.2229C27.7163 27.2229 27.1827 27.0019 26.7893 26.6085C26.3958 26.215 26.1748 25.6814 26.1748 25.125V23.0271H30.3706Z" stroke="#ACACAC" stroke-width="1.5" stroke-linecap="round" stroke-linejoin="round"/>
<path d="M11.6295 18.8312C11.2667 18.8315 10.91 18.7378 10.5943 18.5591C10.2786 18.3804 10.0146 18.1228 9.82809 17.8116L7.905 14.6046C7.71847 14.2939 7.45462 14.0368 7.13917 13.8583C6.82371 13.6799 6.46741 13.5862 6.10498 13.5864H1.22803" stroke="#ACACAC" stroke-width="1.5" stroke-linecap="round" stroke-linejoin="round"/>
<path d="M32.2405 13.5864H27.3635C27.0013 13.5864 26.6453 13.6802 26.3301 13.8587C26.0149 14.0371 25.7513 14.2941 25.5649 14.6046L23.6404 17.813C23.454 18.1236 23.1904 18.3806 22.8752 18.559C22.56 18.7374 22.204 18.8312 21.8418 18.8312" stroke="#ACACAC" stroke-width="1.5" stroke-linecap="round" stroke-linejoin="round"/>
<path d="M1 17.7822H5.19583" stroke="#ACACAC" stroke-width="1.5" stroke-linecap="round" stroke-linejoin="round"/>
<path d="M28.2729 17.7822H32.4688" stroke="#ACACAC" stroke-width="1.5" stroke-linecap="round" stroke-linejoin="round"/>
<path d="M14.1118 16.2088C14.1118 16.5532 14.1796 16.8942 14.3114 17.2124C14.4432 17.5305 14.6364 17.8196 14.8799 18.0631C15.1234 18.3066 15.4125 18.4998 15.7307 18.6316C16.0488 18.7634 16.3898 18.8312 16.7342 18.8312C17.0786 18.8312 17.4196 18.7634 17.7378 18.6316C18.0559 18.4998 18.345 18.3066 18.5885 18.0631C18.832 17.8196 19.0252 17.5305 19.157 17.2124C19.2888 16.8942 19.3566 16.5532 19.3566 16.2088C19.3566 15.8644 19.2888 15.5234 19.157 15.2053C19.0252 14.8871 18.832 14.598 18.5885 14.3545C18.345 14.111 18.0559 13.9178 17.7378 13.786C17.4196 13.6543 17.0786 13.5864 16.7342 13.5864C16.3898 13.5864 16.0488 13.6543 15.7307 13.786C15.4125 13.9178 15.1234 14.111 14.8799 14.3545C14.6364 14.598 14.4432 14.8871 14.3114 15.2053C14.1796 15.5234 14.1118 15.8644 14.1118 16.2088Z" stroke="#ACACAC" stroke-width="1.5" stroke-linecap="round" stroke-linejoin="round"/>
</svg>
