<svg width="33" height="33" viewBox="0 0 33 33" fill="none" xmlns="http://www.w3.org/2000/svg">
<path d="M4.57031 26.4062H27.9297M4.57031 26.4062C4.16627 26.4062 3.77878 26.2457 3.49308 25.96C3.20738 25.6743 3.04688 25.2869 3.04688 24.8828M4.57031 26.4062H6.60156C7.4425 26.4062 8.125 25.7237 8.125 24.8828M27.9297 26.4062C28.7706 26.4062 29.4531 25.7237 29.4531 24.8828M27.9297 26.4062H25.8984C25.4944 26.4062 25.1069 26.2457 24.8212 25.96C24.5355 25.6743 24.375 25.2869 24.375 24.8828M3.04688 24.8828V7.61719M3.04688 24.8828V22.8516C3.04688 22.0106 3.72937 21.3281 4.57031 21.3281M8.125 24.8828V17.7734M8.125 24.8828C8.125 25.7237 8.8075 26.4062 9.64844 26.4062H22.8516C23.6925 26.4062 24.375 25.7237 24.375 24.8828M8.125 24.8828V22.8516C8.125 22.0106 7.4425 21.3281 6.60156 21.3281M3.04688 7.61719C3.04688 6.77625 3.72937 6.09375 4.57031 6.09375M3.04688 7.61719V9.64844C3.04688 10.4894 3.72937 11.1719 4.57031 11.1719M4.57031 21.3281C3.72937 21.3281 3.04688 20.6456 3.04688 19.8047V17.7734C3.04688 16.9325 3.72937 16.25 4.57031 16.25M4.57031 21.3281H6.60156M29.4531 24.8828V7.61719M29.4531 24.8828V22.8516C29.4531 22.0106 28.7706 21.3281 27.9297 21.3281M29.4531 7.61719C29.4531 6.77625 28.7706 6.09375 27.9297 6.09375M29.4531 7.61719V9.64844C29.4531 10.4894 28.7706 11.1719 27.9297 11.1719M27.9297 21.3281C28.7706 21.3281 29.4531 20.6456 29.4531 19.8047V17.7734C29.4531 16.9325 28.7706 16.25 27.9297 16.25M27.9297 21.3281H25.8984M24.375 24.8828V17.7734M24.375 24.8828V22.8516C24.375 22.0106 25.0575 21.3281 25.8984 21.3281M27.9297 6.09375H4.57031M27.9297 6.09375H25.8984C25.0575 6.09375 24.375 6.77625 24.375 7.61719M4.57031 6.09375H6.60156C7.4425 6.09375 8.125 6.77625 8.125 7.61719M24.375 7.61719C24.375 6.77625 23.6925 6.09375 22.8516 6.09375H9.64844C8.8075 6.09375 8.125 6.77625 8.125 7.61719M24.375 7.61719V9.64844C24.375 10.0525 24.5355 10.44 24.8212 10.7257C25.1069 11.0114 25.4944 11.1719 25.8984 11.1719M24.375 7.61719V14.7266M27.9297 11.1719H25.8984M27.9297 11.1719C28.7706 11.1719 29.4531 11.8544 29.4531 12.6953V14.7266C29.4531 15.5675 28.7706 16.25 27.9297 16.25M8.125 7.61719V9.64844C8.125 10.4894 7.4425 11.1719 6.60156 11.1719M8.125 7.61719V14.7266M4.57031 11.1719H6.60156M4.57031 11.1719C3.72937 11.1719 3.04688 11.8544 3.04688 12.6953V14.7266C3.04688 15.5675 3.72937 16.25 4.57031 16.25M6.60156 11.1719C7.4425 11.1719 8.125 11.8544 8.125 12.6953V14.7266M4.57031 16.25H6.60156M8.125 14.7266C8.125 15.1306 8.2855 15.5181 8.5712 15.8038C8.8569 16.0895 9.2444 16.25 9.64844 16.25M8.125 14.7266C8.125 15.5675 7.4425 16.25 6.60156 16.25M25.8984 11.1719C25.0575 11.1719 24.375 11.8544 24.375 12.6953V14.7266M24.375 14.7266C24.375 15.5675 23.6925 16.25 22.8516 16.25M24.375 14.7266C24.375 15.5675 25.0575 16.25 25.8984 16.25M27.9297 16.25H25.8984M9.64844 16.25H22.8516M9.64844 16.25C8.8075 16.25 8.125 16.9325 8.125 17.7734M22.8516 16.25C23.6925 16.25 24.375 16.9325 24.375 17.7734M8.125 17.7734V19.8047C8.125 20.6456 7.4425 21.3281 6.60156 21.3281M8.125 17.7734C8.125 16.9325 7.4425 16.25 6.60156 16.25M25.8984 16.25C25.0575 16.25 24.375 16.9325 24.375 17.7734M24.375 17.7734V19.8047C24.375 20.6456 25.0575 21.3281 25.8984 21.3281" stroke="#ACACAC" stroke-width="1.5" stroke-linecap="round" stroke-linejoin="round"/>
</svg>
