<svg width="24" height="24" viewBox="0 0 24 24" fill="none" xmlns="http://www.w3.org/2000/svg">
<path d="M9.03963 14.8181L3.16912 8.94688C2.90993 8.68765 2.81104 8.30311 2.93177 7.95698C5.26483 1.26781 11.7964 1.55324 15.3264 2.52332C15.8076 2.65553 16.0818 3.14499 15.9833 3.63413L15.7338 4.87308C15.6398 5.3399 15.2297 5.67568 14.7535 5.67568H12.4919C11.9396 5.67568 11.4919 6.1234 11.4919 6.67568V8.14937C11.4919 8.70165 11.0442 9.14937 10.4919 9.14937H8.99457C8.44229 9.14937 7.99457 9.59708 7.99457 10.1494V10.5908C7.99457 11.0737 8.38602 11.4652 8.86891 11.4652C9.35179 11.4652 9.74325 11.8566 9.74325 12.3395V14.5267C9.74325 14.7543 9.55872 14.9388 9.33109 14.9388C9.22177 14.9388 9.11693 14.8954 9.03963 14.8181Z" fill="url(#paint0_linear_754_1718)"/>
<path fill-rule="evenodd" clip-rule="evenodd" d="M21.4079 9.85604C20.4283 5.64741 16.6292 2.5 12.0767 2.5C6.77799 2.5 2.5 6.76364 2.5 12.0017C2.5 16.9678 6.3453 21.058 11.2601 21.4693C11.396 21.9991 11.5774 22.5108 11.8001 23C5.8104 22.8542 1 17.9859 1 12.0017C1 5.92562 5.95919 1 12.0767 1C17.5648 1 22.1207 4.96429 23 10.1671C22.486 10.0197 21.954 9.91469 21.4079 9.85604Z" fill="url(#paint1_linear_754_1718)"/>
<path d="M16.2279 18.5132C18.1997 18.5132 19.7982 16.9256 19.7982 14.9672C19.7982 13.0088 18.1997 11.4211 16.2279 11.4211C14.2562 11.4211 12.6577 13.0088 12.6577 14.9672C12.6577 16.9256 14.2562 18.5132 16.2279 18.5132Z" stroke="url(#paint2_linear_754_1718)" stroke-linecap="round" stroke-linejoin="round"/>
<path d="M20.8184 19.5263L18.7783 17.5" stroke="url(#paint3_linear_754_1718)" stroke-linecap="round" stroke-linejoin="round"/>
<defs>
<linearGradient id="paint0_linear_754_1718" x1="9.43873" y1="-2.74765" x2="9.43873" y2="19.2502" gradientUnits="userSpaceOnUse">
<stop stop-color="#E9CD7E"/>
<stop offset="0.911673" stop-color="#B09040"/>
<stop offset="1" stop-color="#685830"/>
</linearGradient>
<linearGradient id="paint1_linear_754_1718" x1="11.9785" y1="-7.08382" x2="11.9785" y2="30.3333" gradientUnits="userSpaceOnUse">
<stop stop-color="#E9CD7E"/>
<stop offset="0.911673" stop-color="#B09040"/>
<stop offset="1" stop-color="#685830"/>
</linearGradient>
<linearGradient id="paint2_linear_754_1718" x1="16.221" y1="8.81517" x2="16.221" y2="20.8773" gradientUnits="userSpaceOnUse">
<stop stop-color="#E9CD7E"/>
<stop offset="0.911673" stop-color="#B09040"/>
<stop offset="1" stop-color="#685830"/>
</linearGradient>
<linearGradient id="paint3_linear_754_1718" x1="19.7964" y1="16.7554" x2="19.7964" y2="20.2018" gradientUnits="userSpaceOnUse">
<stop stop-color="#E9CD7E"/>
<stop offset="0.911673" stop-color="#B09040"/>
<stop offset="1" stop-color="#685830"/>
</linearGradient>
</defs>
</svg>
