<svg width="30" height="30" viewBox="0 0 30 30" fill="none" xmlns="http://www.w3.org/2000/svg">
<path d="M20.625 6.5625C20.625 7.55706 21.0201 8.51089 21.7233 9.21415C22.4266 9.91741 23.3804 10.3125 24.375 10.3125C25.3696 10.3125 26.3234 9.91741 27.0267 9.21415C27.7299 8.51089 28.125 7.55706 28.125 6.5625C28.125 5.56794 27.7299 4.61411 27.0267 3.91085C26.3234 3.20759 25.3696 2.8125 24.375 2.8125C23.3804 2.8125 22.4266 3.20759 21.7233 3.91085C21.0201 4.61411 20.625 5.56794 20.625 6.5625Z" stroke="#ACACAC" stroke-width="1.5" stroke-linecap="round" stroke-linejoin="round"/>
<path d="M22.265 25.3125L22.5 27.1875H26.25L27.1875 19.6875H29.0625V16.875C29.0625 16.0045 28.8201 15.1511 28.3624 14.4106C27.9048 13.6701 27.2499 13.0717 26.4713 12.6824C25.6927 12.2931 24.821 12.1283 23.954 12.2064C23.087 12.2846 22.2589 12.6027 21.5625 13.125" stroke="#ACACAC" stroke-width="1.5" stroke-linecap="round" stroke-linejoin="round"/>
<path d="M1.875 6.5625C1.875 7.55706 2.27009 8.51089 2.97335 9.21415C3.67661 9.91741 4.63044 10.3125 5.625 10.3125C6.61956 10.3125 7.57339 9.91741 8.27665 9.21415C8.97991 8.51089 9.375 7.55706 9.375 6.5625C9.375 5.56794 8.97991 4.61411 8.27665 3.91085C7.57339 3.20759 6.61956 2.8125 5.625 2.8125C4.63044 2.8125 3.67661 3.20759 2.97335 3.91085C2.27009 4.61411 1.875 5.56794 1.875 6.5625Z" stroke="#ACACAC" stroke-width="1.5" stroke-linecap="round" stroke-linejoin="round"/>
<path d="M7.735 25.3125L7.5 27.1875H3.75L2.8125 19.6875H0.9375V16.875C0.9375 16.0045 1.17991 15.1511 1.63757 14.4106C2.09524 13.6701 2.75007 13.0717 3.52869 12.6824C4.30731 12.2931 5.17896 12.1283 6.04596 12.2064C6.91297 12.2846 7.74108 12.6027 8.4375 13.125" stroke="#ACACAC" stroke-width="1.5" stroke-linecap="round" stroke-linejoin="round"/>
<path d="M12.1875 11.25C12.1875 11.9959 12.4838 12.7113 13.0113 13.2387C13.5387 13.7662 14.2541 14.0625 15 14.0625C15.7459 14.0625 16.4613 13.7662 16.9887 13.2387C17.5162 12.7113 17.8125 11.9959 17.8125 11.25C17.8125 10.5041 17.5162 9.78871 16.9887 9.26126C16.4613 8.73382 15.7459 8.4375 15 8.4375C14.2541 8.4375 13.5387 8.73382 13.0113 9.26126C12.4838 9.78871 12.1875 10.5041 12.1875 11.25Z" stroke="#ACACAC" stroke-width="1.5" stroke-linecap="round" stroke-linejoin="round"/>
<path d="M15 15.9375C13.7568 15.9375 12.5645 16.4314 11.6854 17.3104C10.8064 18.1895 10.3125 19.3818 10.3125 20.625V21.5625H12.1875L13.125 27.1875H15" stroke="#ACACAC" stroke-width="1.5" stroke-linecap="round" stroke-linejoin="round"/>
<path d="M15 15.9375C16.2432 15.9375 17.4355 16.4314 18.3146 17.3104C19.1936 18.1895 19.6875 19.3818 19.6875 20.625V21.5625H17.8125L16.875 27.1875H15" stroke="#ACACAC" stroke-width="1.5" stroke-linecap="round" stroke-linejoin="round"/>
</svg>
