<svg width="30" height="30" viewBox="0 0 30 30" fill="none" xmlns="http://www.w3.org/2000/svg">
<g clip-path="url(#clip0_887_382)">
<path d="M29.0625 29.0625V24.375C29.0625 23.8777 28.865 23.4008 28.5133 23.0492C28.1617 22.6975 27.6848 22.5 27.1875 22.5H2.8125C2.31522 22.5 1.83831 22.6975 1.48667 23.0492C1.13504 23.4008 0.9375 23.8777 0.9375 24.375V29.0625H29.0625Z" stroke="url(#paint0_linear_887_382)" stroke-width="1.5" stroke-linecap="round" stroke-linejoin="round"/>
<path d="M25.3125 18.4375H4.6875C4.19022 18.4375 3.71331 18.635 3.36167 18.9867C3.01004 19.3383 2.8125 19.8152 2.8125 20.3125V22.5H27.1875V20.3125C27.1875 19.8152 26.99 19.3383 26.6383 18.9867C26.2867 18.635 25.8098 18.4375 25.3125 18.4375Z" stroke="url(#paint1_linear_887_382)" stroke-width="1.5" stroke-linecap="round" stroke-linejoin="round"/>
<path d="M11.875 14.6875H7.5C7.25237 14.6907 7.01579 14.7905 6.84067 14.9657C6.66555 15.1408 6.56574 15.3774 6.5625 15.625V18.4375H12.8125V15.625C12.8093 15.3774 12.7095 15.1408 12.5343 14.9657C12.3592 14.7905 12.1226 14.6907 11.875 14.6875Z" stroke="url(#paint2_linear_887_382)" stroke-width="1.5" stroke-linecap="round" stroke-linejoin="round"/>
<path d="M22.5 14.6875H18.125C17.8774 14.6907 17.6408 14.7905 17.4657 14.9657C17.2905 15.1408 17.1907 15.3774 17.1875 15.625V18.4375H23.4375V15.625C23.4343 15.3774 23.3345 15.1408 23.1593 14.9657C22.9842 14.7905 22.7476 14.6907 22.5 14.6875Z" stroke="url(#paint3_linear_887_382)" stroke-width="1.5" stroke-linecap="round" stroke-linejoin="round"/>
<path d="M2.8125 2.8125C2.31522 2.8125 1.83831 3.01004 1.48667 3.36167C1.13504 3.71331 0.9375 4.19022 0.9375 4.6875V15.9375" stroke="url(#paint4_linear_887_382)" stroke-width="1.5" stroke-linecap="round" stroke-linejoin="round"/>
<path d="M29.0625 15.9375V4.6875C29.0625 4.19022 28.865 3.71331 28.5133 3.36167C28.1617 3.01004 27.6848 2.8125 27.1875 2.8125" stroke="url(#paint5_linear_887_382)" stroke-width="1.5" stroke-linecap="round" stroke-linejoin="round"/>
<path d="M10.8875 8.43755H5.98751C5.83722 8.43813 5.68899 8.40257 5.55533 8.33387C5.42166 8.26517 5.30647 8.16534 5.21947 8.04279C5.13246 7.92025 5.07619 7.77859 5.0554 7.62975C5.03461 7.4809 5.04991 7.32924 5.10001 7.18755L6.35001 3.43755C6.41273 3.25185 6.53208 3.09048 6.69127 2.97613C6.85047 2.86177 7.0415 2.8002 7.23751 2.80005H9.63751C9.83351 2.8002 10.0245 2.86177 10.1837 2.97613C10.3429 3.09048 10.4623 3.25185 10.525 3.43755L11.775 7.18755C11.8251 7.32924 11.8404 7.4809 11.8196 7.62975C11.7988 7.77859 11.7426 7.92025 11.6555 8.04279C11.5685 8.16534 11.4534 8.26517 11.3197 8.33387C11.186 8.40257 11.0378 8.43813 10.8875 8.43755Z" stroke="url(#paint6_linear_887_382)" stroke-width="1.5" stroke-linecap="round" stroke-linejoin="round"/>
<path d="M8.4375 2.8125V0.9375" stroke="url(#paint7_linear_887_382)" stroke-width="1.5" stroke-linecap="round" stroke-linejoin="round"/>
<path d="M19.1125 8.43755H24.0125C24.1628 8.43813 24.311 8.40257 24.4447 8.33387C24.5784 8.26517 24.6935 8.16534 24.7805 8.04279C24.8676 7.92025 24.9238 7.77859 24.9446 7.62975C24.9654 7.4809 24.9501 7.32924 24.9 7.18755L23.65 3.43755C23.5873 3.25185 23.4679 3.09048 23.3087 2.97613C23.1495 2.86177 22.9585 2.8002 22.7625 2.80005H20.3625C20.1665 2.8002 19.9755 2.86177 19.8163 2.97613C19.6571 3.09048 19.5377 3.25185 19.475 3.43755L18.225 7.18755C18.1749 7.32924 18.1596 7.4809 18.1804 7.62975C18.2012 7.77859 18.2575 7.92025 18.3445 8.04279C18.4315 8.16534 18.5467 8.26517 18.6803 8.33387C18.814 8.40257 18.9622 8.43813 19.1125 8.43755Z" stroke="url(#paint8_linear_887_382)" stroke-width="1.5" stroke-linecap="round" stroke-linejoin="round"/>
<path d="M21.5625 2.8125V0.9375" stroke="url(#paint9_linear_887_382)" stroke-width="1.5" stroke-linecap="round" stroke-linejoin="round"/>
<path d="M14.0625 2.8125H15.9375" stroke="url(#paint10_linear_887_382)" stroke-width="1.5" stroke-linecap="round" stroke-linejoin="round"/>
</g>
<defs>
<linearGradient id="paint0_linear_887_382" x1="14.9726" y1="20.0886" x2="14.9726" y2="31.25" gradientUnits="userSpaceOnUse">
<stop stop-color="#E9CD7E"/>
<stop offset="0.911673" stop-color="#B09040"/>
<stop offset="1" stop-color="#685830"/>
</linearGradient>
<linearGradient id="paint1_linear_887_382" x1="14.9762" y1="16.9447" x2="14.9762" y2="23.8542" gradientUnits="userSpaceOnUse">
<stop stop-color="#E9CD7E"/>
<stop offset="0.911673" stop-color="#B09040"/>
<stop offset="1" stop-color="#685830"/>
</linearGradient>
<linearGradient id="paint2_linear_887_382" x1="9.68141" y1="13.3096" x2="9.68141" y2="19.6875" gradientUnits="userSpaceOnUse">
<stop stop-color="#E9CD7E"/>
<stop offset="0.911673" stop-color="#B09040"/>
<stop offset="1" stop-color="#685830"/>
</linearGradient>
<linearGradient id="paint3_linear_887_382" x1="20.3064" y1="13.3096" x2="20.3064" y2="19.6875" gradientUnits="userSpaceOnUse">
<stop stop-color="#E9CD7E"/>
<stop offset="0.911673" stop-color="#B09040"/>
<stop offset="1" stop-color="#685830"/>
</linearGradient>
<linearGradient id="paint4_linear_887_382" x1="1.87317" y1="-2.01023" x2="1.87317" y2="20.3125" gradientUnits="userSpaceOnUse">
<stop stop-color="#E9CD7E"/>
<stop offset="0.911673" stop-color="#B09040"/>
<stop offset="1" stop-color="#685830"/>
</linearGradient>
<linearGradient id="paint5_linear_887_382" x1="28.1232" y1="-2.01023" x2="28.1232" y2="20.3125" gradientUnits="userSpaceOnUse">
<stop stop-color="#E9CD7E"/>
<stop offset="0.911673" stop-color="#B09040"/>
<stop offset="1" stop-color="#685830"/>
</linearGradient>
<linearGradient id="paint6_linear_887_382" x1="8.4309" y1="0.728567" x2="8.4309" y2="10.3167" gradientUnits="userSpaceOnUse">
<stop stop-color="#E9CD7E"/>
<stop offset="0.911673" stop-color="#B09040"/>
<stop offset="1" stop-color="#685830"/>
</linearGradient>
<linearGradient id="paint7_linear_887_382" x1="8.93653" y1="0.248538" x2="8.93653" y2="3.4375" gradientUnits="userSpaceOnUse">
<stop stop-color="#E9CD7E"/>
<stop offset="0.911673" stop-color="#B09040"/>
<stop offset="1" stop-color="#685830"/>
</linearGradient>
<linearGradient id="paint8_linear_887_382" x1="21.5559" y1="0.728567" x2="21.5559" y2="10.3167" gradientUnits="userSpaceOnUse">
<stop stop-color="#E9CD7E"/>
<stop offset="0.911673" stop-color="#B09040"/>
<stop offset="1" stop-color="#685830"/>
</linearGradient>
<linearGradient id="paint9_linear_887_382" x1="22.0615" y1="0.248538" x2="22.0615" y2="3.4375" gradientUnits="userSpaceOnUse">
<stop stop-color="#E9CD7E"/>
<stop offset="0.911673" stop-color="#B09040"/>
<stop offset="1" stop-color="#685830"/>
</linearGradient>
<linearGradient id="paint10_linear_887_382" x1="14.9982" y1="2.44505" x2="14.9982" y2="4.14583" gradientUnits="userSpaceOnUse">
<stop stop-color="#E9CD7E"/>
<stop offset="0.911673" stop-color="#B09040"/>
<stop offset="1" stop-color="#685830"/>
</linearGradient>
<clipPath id="clip0_887_382">
<rect width="30" height="30" fill="white"/>
</clipPath>
</defs>
</svg>
