<svg width="30" height="30" viewBox="0 0 30 30" fill="none" xmlns="http://www.w3.org/2000/svg">
<g clip-path="url(#clip0_885_12294)">
<path d="M0.9375 24.375C0.9375 25.6182 1.43136 26.8105 2.31044 27.6896C3.18951 28.5686 4.3818 29.0625 5.625 29.0625C6.8682 29.0625 8.06049 28.5686 8.93956 27.6896C9.81864 26.8105 10.3125 25.6182 10.3125 24.375C10.3125 23.1318 9.81864 21.9395 8.93956 21.0604C8.06049 20.1814 6.8682 19.6875 5.625 19.6875C4.3818 19.6875 3.18951 20.1814 2.31044 21.0604C1.43136 21.9395 0.9375 23.1318 0.9375 24.375Z" stroke="#ACACAC" stroke-width="1.5" stroke-linecap="round" stroke-linejoin="round"/>
<path d="M19.6875 18.75C19.6875 19.9932 20.1814 21.1855 21.0604 22.0646C21.9395 22.9436 23.1318 23.4375 24.375 23.4375C25.6182 23.4375 26.8105 22.9436 27.6896 22.0646C28.5686 21.1855 29.0625 19.9932 29.0625 18.75C29.0625 17.5068 28.5686 16.3145 27.6896 15.4354C26.8105 14.5564 25.6182 14.0625 24.375 14.0625C23.1318 14.0625 21.9395 14.5564 21.0604 15.4354C20.1814 16.3145 19.6875 17.5068 19.6875 18.75Z" stroke="#ACACAC" stroke-width="1.5" stroke-linecap="round" stroke-linejoin="round"/>
<path d="M10.3125 24.3749V8.39863C10.3124 7.61178 10.5598 6.84484 11.0197 6.20638C11.4796 5.56792 12.1286 5.0903 12.875 4.84113L26.685 1.00613C26.9634 0.92911 27.2557 0.917438 27.5394 0.972023C27.823 1.02661 28.0901 1.14597 28.32 1.32081C28.5499 1.49564 28.7363 1.72122 28.8647 1.97995C28.993 2.23868 29.0599 2.52356 29.06 2.81238V18.7499" stroke="#ACACAC" stroke-width="1.5" stroke-linecap="round" stroke-linejoin="round"/>
<path d="M10.3125 10.8987L29.0625 5.27368" stroke="#ACACAC" stroke-width="1.5" stroke-linecap="round" stroke-linejoin="round"/>
</g>
<defs>
<clipPath id="clip0_885_12294">
<rect width="30" height="30" fill="white"/>
</clipPath>
</defs>
</svg>
