<svg width="119" height="96" viewBox="0 0 119 96" fill="none" xmlns="http://www.w3.org/2000/svg">
<path d="M113.273 65.2313C112.136 65.5193 109 63.8702 109 63.8702C109 63.8702 111.939 65.8284 112.231 66.9801C112.523 68.1319 110.87 71.2533 110.87 71.2533C110.87 71.2533 112.828 68.3138 113.98 68.0221C115.132 67.7303 118.253 69.3831 118.253 69.3831C118.253 69.3831 115.312 67.4176 115.022 66.2732C114.732 65.1288 116.383 62 116.383 62C116.383 62 114.44 64.9358 113.273 65.2313Z" fill="#ACACAC"/>
<path opacity="0.8" d="M8.54628 83.4625C6.28705 84.0348 -0.000110513 80.7404 -0.000110513 80.7404C-0.000110513 80.7404 5.89001 84.6696 6.46977 86.9584C7.04954 89.2472 3.74033 95.5067 3.74033 95.5067C3.74033 95.5067 7.6714 89.6239 9.96017 89.0441C12.2489 88.4644 18.5066 91.7662 18.5066 91.7662C18.5066 91.7662 12.6257 87.8425 12.044 85.5464C11.4624 83.2502 14.7661 77 14.7661 77C14.7661 77 10.8129 82.8884 8.54628 83.4625Z" fill="#D6B560"/>
<path opacity="0.8" d="M105.546 6.46252C103.28 7.03667 96.9999 3.74044 96.9999 3.74044C96.9999 3.74044 102.883 7.67151 103.462 9.96028C104.042 12.249 100.74 18.5067 100.74 18.5067C100.74 18.5067 104.664 12.6258 106.96 12.0441C109.256 11.4625 115.507 14.7662 115.507 14.7662C115.507 14.7662 109.624 10.8352 109.044 8.54639C108.464 6.25762 111.766 0 111.766 0C111.766 0 107.806 5.89023 105.546 6.46252Z" fill="#D6B560"/>
<path d="M21.2731 15.2313C20.1435 15.5174 16.9999 13.8702 16.9999 13.8702C16.9999 13.8702 19.9394 15.8284 20.2312 16.9801C20.523 18.1319 18.8702 21.2533 18.8702 21.2533C18.8702 21.2533 20.8338 18.3046 21.9782 18.0147C23.1226 17.7248 26.2533 19.3831 26.2533 19.3831C26.2533 19.3831 23.3119 17.4176 23.022 16.2732C22.7321 15.1288 24.3831 12 24.3831 12C24.3831 12 22.4028 14.9451 21.2731 15.2313Z" fill="#ACACAC"/>
<ellipse cx="65.5" cy="52" rx="40.5" ry="40" fill="#2B2B2B"/>
<path fill-rule="evenodd" clip-rule="evenodd" d="M65.8543 32.6796C68.6528 32.6796 70.9214 30.439 70.9214 27.675C70.9214 24.911 68.6528 22.6704 65.8543 22.6704C63.0558 22.6704 60.7871 24.911 60.7871 27.675C60.7871 30.439 63.0558 32.6796 65.8543 32.6796ZM65.7413 30.4555C67.2338 30.4555 68.4438 29.2605 68.4438 27.7864C68.4438 26.3123 67.2338 25.1173 65.7413 25.1173C64.2488 25.1173 63.0388 26.3123 63.0388 27.7864C63.0388 29.2605 64.2488 30.4555 65.7413 30.4555Z" fill="#D6B560"/>
<path d="M65.7526 67.8458C71.2315 67.8458 75.673 63.4591 75.673 58.0479C75.673 52.6367 71.2315 48.25 65.7526 48.25C60.2738 48.25 55.8323 52.6367 55.8323 58.0479C55.8323 63.4591 60.2738 67.8458 65.7526 67.8458Z" fill="white"/>
<path d="M81.4537 50.7626V43.2456C81.4537 39.1455 79.8046 35.2133 76.8691 32.3141C73.9337 29.4149 69.9523 27.7861 65.801 27.7861C61.6496 27.7861 57.6682 29.4149 54.7328 32.3141C51.7973 35.2133 50.1482 39.1455 50.1482 43.2456V50.7626C50.1484 52.4895 49.6537 54.1813 48.7214 55.6423C47.7891 57.1033 46.4573 58.2739 44.8797 59.0188C44.5172 59.1893 44.2111 59.4581 43.9972 59.7938C43.7833 60.1294 43.6703 60.5182 43.6714 60.9148V60.9556C43.6711 61.0988 43.6995 61.2407 43.7548 61.3731C43.8101 61.5056 43.8913 61.6259 43.9938 61.7273C44.0962 61.8287 44.218 61.9091 44.3519 61.964C44.4859 62.0189 44.6295 62.0472 44.7746 62.0472H86.8253C86.9703 62.0472 87.1139 62.0189 87.2479 61.964C87.3819 61.9091 87.5036 61.8287 87.6061 61.7273C87.7085 61.6259 87.7898 61.5056 87.8451 61.3731C87.9004 61.2407 87.9287 61.0988 87.9285 60.9556V60.9148C87.9286 60.5195 87.8154 60.1321 87.6019 59.7977C87.3884 59.4632 87.0834 59.1953 86.7222 59.0249C85.1437 58.2796 83.8112 57.108 82.8788 55.6458C81.9465 54.1836 81.4524 52.4906 81.4537 50.7626Z" fill="#4E4E4E"/>
<path fill-rule="evenodd" clip-rule="evenodd" d="M88.0372 62.0401H43.6714V60.7056H88.0372V62.0401Z" fill="#D6B560"/>
<path d="M78.3529 42.0218C81.8355 42.0218 84.6587 39.2335 84.6587 35.7939C84.6587 32.3543 81.8355 29.5659 78.3529 29.5659C74.8703 29.5659 72.0471 32.3543 72.0471 35.7939C72.0471 39.2335 74.8703 42.0218 78.3529 42.0218Z" fill="white"/>
<path d="M76.7766 35.7912C76.7766 35.2388 76.9045 34.8045 77.1602 34.4884C77.4195 34.1722 77.8171 34.0142 78.3531 34.0142C78.8856 34.0142 79.2814 34.1738 79.5407 34.4931C79.7999 34.8093 79.9295 35.2419 79.9295 35.7912C79.9295 36.3436 79.7999 36.7795 79.5407 37.0988C79.2814 37.4149 78.8856 37.573 78.3531 37.573C77.8171 37.573 77.4195 37.4149 77.1602 37.0988C76.9045 36.7795 76.7766 36.3436 76.7766 35.7912ZM78.7787 35.7912C78.7787 35.5357 78.7507 35.3441 78.6946 35.2164C78.6386 35.0855 78.5247 35.02 78.3531 35.02C78.1779 35.02 78.0623 35.0855 78.0062 35.2164C77.9502 35.3441 77.9222 35.5357 77.9222 35.7912C77.9222 36.0498 77.9502 36.2446 78.0062 36.3755C78.0623 36.5033 78.1779 36.5671 78.3531 36.5671C78.5247 36.5671 78.6386 36.5033 78.6946 36.3755C78.7507 36.2446 78.7787 36.0498 78.7787 35.7912Z" fill="#D6B560"/>
<path fill-rule="evenodd" clip-rule="evenodd" d="M53.605 65.4433C52.5262 66.407 51.4503 67.351 50.4004 68.3452C50.1737 68.5583 50.1652 68.9097 50.3796 69.1311C50.5948 69.3546 50.9525 69.3616 51.177 69.1492C52.2219 68.1613 53.2884 67.225 54.36 66.2683C54.5909 66.0609 54.6088 65.7088 54.4022 65.4826C54.1928 65.2549 53.8359 65.2359 53.605 65.4433Z" fill="#D6B560"/>
<path fill-rule="evenodd" clip-rule="evenodd" d="M77.9759 65.4442C79.0487 66.4082 80.1185 67.3524 81.1623 68.3468C81.3876 68.5599 81.3943 68.911 81.179 69.132C80.963 69.3551 80.6056 69.3617 80.3824 69.1493C79.3437 68.1612 78.2831 67.2246 77.2175 66.2677C76.9879 66.0602 76.9719 65.7085 77.1793 65.4826C77.3897 65.2553 77.7463 65.2368 77.9759 65.4442Z" fill="#D6B560"/>
<path fill-rule="evenodd" clip-rule="evenodd" d="M65.1001 71.6705C65.083 73.1041 65.0534 74.5222 65.0786 75.9554C65.0829 76.2638 65.3378 76.5076 65.6477 76.5019C65.9596 76.4971 66.2075 76.2425 66.2023 75.9362C66.1784 74.5108 66.2074 73.1047 66.2247 71.681C66.2275 71.3734 65.9784 71.1224 65.6703 71.1192C65.3592 71.117 65.1029 71.3629 65.1001 71.6705Z" fill="#D6B560"/>
</svg>
