<svg width="72" height="76" viewBox="0 0 72 76" fill="none" xmlns="http://www.w3.org/2000/svg">
<g filter="url(#filter0_bd_821_3256)">
<rect x="16" y="20" width="40" height="40" rx="20" fill="url(#paint0_radial_821_3256)" fill-opacity="0.5" shape-rendering="crispEdges"/>
<rect x="16.5" y="20.5" width="39" height="39" rx="19.5" stroke="white" style="mix-blend-mode:overlay" shape-rendering="crispEdges"/>
<path d="M39.0002 46V46.75C39.0002 47.5456 38.6842 48.3087 38.1216 48.8713C37.5589 49.4339 36.7959 49.75 36.0002 49.75C35.2046 49.75 34.4415 49.4339 33.8789 48.8713C33.3163 48.3087 33.0002 47.5456 33.0002 46.75V46M44.0477 44.4733C42.844 43 41.9941 42.25 41.9941 38.1883C41.9941 34.4688 40.0948 33.1436 38.5315 32.5C38.3238 32.4147 38.1284 32.2187 38.0651 32.0055C37.7909 31.0722 37.0221 30.25 36.0002 30.25C34.9784 30.25 34.2091 31.0727 33.9377 32.0064C33.8745 32.222 33.679 32.4147 33.4713 32.5C31.9062 33.1445 30.0087 34.465 30.0087 38.1883C30.0063 42.25 29.1565 43 27.9527 44.4733C27.454 45.0836 27.8909 46 28.7632 46H43.242C44.1096 46 44.5437 45.0808 44.0477 44.4733Z" stroke="white" stroke-width="1.5" stroke-linecap="round" stroke-linejoin="round"/>
</g>
<defs>
<filter id="filter0_bd_821_3256" x="-24" y="0" width="120" height="120" filterUnits="userSpaceOnUse" color-interpolation-filters="sRGB">
<feFlood flood-opacity="0" result="BackgroundImageFix"/>
<feGaussianBlur in="BackgroundImageFix" stdDeviation="7.5"/>
<feComposite in2="SourceAlpha" operator="in" result="effect1_backgroundBlur_821_3256"/>
<feColorMatrix in="SourceAlpha" type="matrix" values="0 0 0 0 0 0 0 0 0 0 0 0 0 0 0 0 0 0 127 0" result="hardAlpha"/>
<feOffset dy="20"/>
<feGaussianBlur stdDeviation="20"/>
<feComposite in2="hardAlpha" operator="out"/>
<feColorMatrix type="matrix" values="0 0 0 0 0 0 0 0 0 0 0 0 0 0 0 0 0 0 0.05 0"/>
<feBlend mode="normal" in2="effect1_backgroundBlur_821_3256" result="effect2_dropShadow_821_3256"/>
<feBlend mode="normal" in="SourceGraphic" in2="effect2_dropShadow_821_3256" result="shape"/>
</filter>
<radialGradient id="paint0_radial_821_3256" cx="0" cy="0" r="1" gradientUnits="userSpaceOnUse" gradientTransform="translate(16 20) rotate(45) scale(56.5685 129.875)">
<stop stop-color="#161616"/>
<stop offset="1" stop-color="#4D4D4D"/>
</radialGradient>
</defs>
</svg>
