<svg width="30" height="30" viewBox="0 0 30 30" fill="none" xmlns="http://www.w3.org/2000/svg">
<path d="M1.875 19.6875L3.75 25.3125H7.5C7.99728 25.3125 8.47419 25.51 8.82583 25.8617C9.17746 26.2133 9.375 26.6902 9.375 27.1875V29.0625" stroke="url(#paint0_linear_887_379)" stroke-width="1.5" stroke-linecap="round" stroke-linejoin="round"/>
<path d="M3.75 25.3125V29.0625" stroke="url(#paint1_linear_887_379)" stroke-width="1.5" stroke-linecap="round" stroke-linejoin="round"/>
<path d="M28.125 19.6875L26.25 25.3125H22.5C22.0027 25.3125 21.5258 25.51 21.1742 25.8617C20.8225 26.2133 20.625 26.6902 20.625 27.1875V29.0625" stroke="url(#paint2_linear_887_379)" stroke-width="1.5" stroke-linecap="round" stroke-linejoin="round"/>
<path d="M26.25 25.3125V29.0625" stroke="url(#paint3_linear_887_379)" stroke-width="1.5" stroke-linecap="round" stroke-linejoin="round"/>
<path d="M15 14.645V29.0625" stroke="url(#paint4_linear_887_379)" stroke-width="1.5" stroke-linecap="round" stroke-linejoin="round"/>
<path d="M27.5752 11.5201C27.8302 11.7748 28.0063 12.0976 28.0826 12.4499C28.1589 12.8022 28.132 13.169 28.0052 13.5063C27.711 14.226 27.209 14.8416 26.5634 15.2747C25.9177 15.7077 25.1576 15.9385 24.3802 15.9376C23.7065 15.936 23.0458 15.7521 22.4682 15.4055C21.8905 15.0589 21.4174 14.5625 21.0989 13.9688C20.8153 14.5029 20.4055 14.9597 19.9052 15.2994C19.405 15.6392 18.8293 15.8516 18.2282 15.9182C17.6272 15.9849 17.0189 15.9038 16.4563 15.6819C15.8938 15.46 15.3939 15.1041 15.0002 14.6451C14.6063 15.103 14.1067 15.458 13.5447 15.6792C12.9827 15.9004 12.3752 15.9812 11.7749 15.9146C11.1746 15.848 10.5996 15.636 10.0997 15.2969C9.59988 14.9578 9.19027 14.502 8.90642 13.9688C8.58797 14.5625 8.11484 15.0589 7.53717 15.4055C6.95951 15.7521 6.29883 15.936 5.62517 15.9376C4.84777 15.9383 4.08776 15.7075 3.44213 15.2744C2.79649 14.8414 2.29449 14.2259 2.00017 13.5063C1.87273 13.1694 1.84504 12.8029 1.92041 12.4507C1.99578 12.0984 2.17102 11.7754 2.42517 11.5201L13.6752 1.48759C13.8493 1.31335 14.056 1.17513 14.2836 1.08083C14.5112 0.986526 14.7551 0.937988 15.0014 0.937988C15.2477 0.937988 15.4917 0.986526 15.7192 1.08083C15.9468 1.17513 16.1535 1.31335 16.3277 1.48759L27.5752 11.5201Z" stroke="url(#paint5_linear_887_379)" stroke-width="1.5" stroke-linecap="round" stroke-linejoin="round"/>
<path d="M8.90625 13.9688L15 0.9375" stroke="url(#paint6_linear_887_379)" stroke-width="1.5" stroke-linecap="round" stroke-linejoin="round"/>
<path d="M21.0938 13.9688L15 0.9375" stroke="url(#paint7_linear_887_379)" stroke-width="1.5" stroke-linecap="round" stroke-linejoin="round"/>
<defs>
<linearGradient id="paint0_linear_887_379" x1="5.61769" y1="16.2427" x2="5.61769" y2="32.1875" gradientUnits="userSpaceOnUse">
<stop stop-color="#E9CD7E"/>
<stop offset="0.911673" stop-color="#B09040"/>
<stop offset="1" stop-color="#685830"/>
</linearGradient>
<linearGradient id="paint1_linear_887_379" x1="4.24903" y1="23.9346" x2="4.24903" y2="30.3125" gradientUnits="userSpaceOnUse">
<stop stop-color="#E9CD7E"/>
<stop offset="0.911673" stop-color="#B09040"/>
<stop offset="1" stop-color="#685830"/>
</linearGradient>
<linearGradient id="paint2_linear_887_379" x1="24.3677" y1="16.2427" x2="24.3677" y2="32.1875" gradientUnits="userSpaceOnUse">
<stop stop-color="#E9CD7E"/>
<stop offset="0.911673" stop-color="#B09040"/>
<stop offset="1" stop-color="#685830"/>
</linearGradient>
<linearGradient id="paint3_linear_887_379" x1="26.749" y1="23.9346" x2="26.749" y2="30.3125" gradientUnits="userSpaceOnUse">
<stop stop-color="#E9CD7E"/>
<stop offset="0.911673" stop-color="#B09040"/>
<stop offset="1" stop-color="#685830"/>
</linearGradient>
<linearGradient id="paint4_linear_887_379" x1="15.499" y1="9.34736" x2="15.499" y2="33.8684" gradientUnits="userSpaceOnUse">
<stop stop-color="#E9CD7E"/>
<stop offset="0.911673" stop-color="#B09040"/>
<stop offset="1" stop-color="#685830"/>
</linearGradient>
<linearGradient id="paint5_linear_887_379" x1="14.9764" y1="-4.57477" x2="14.9764" y2="20.9418" gradientUnits="userSpaceOnUse">
<stop stop-color="#E9CD7E"/>
<stop offset="0.911673" stop-color="#B09040"/>
<stop offset="1" stop-color="#685830"/>
</linearGradient>
<linearGradient id="paint6_linear_887_379" x1="11.9472" y1="-3.85079" x2="11.9472" y2="18.3125" gradientUnits="userSpaceOnUse">
<stop stop-color="#E9CD7E"/>
<stop offset="0.911673" stop-color="#B09040"/>
<stop offset="1" stop-color="#685830"/>
</linearGradient>
<linearGradient id="paint7_linear_887_379" x1="18.0409" y1="-3.85079" x2="18.0409" y2="18.3125" gradientUnits="userSpaceOnUse">
<stop stop-color="#E9CD7E"/>
<stop offset="0.911673" stop-color="#B09040"/>
<stop offset="1" stop-color="#685830"/>
</linearGradient>
</defs>
</svg>
