<svg width="30" height="30" viewBox="0 0 30 30" fill="none" xmlns="http://www.w3.org/2000/svg">
<g clip-path="url(#clip0_887_381)">
<path d="M3.33429 26.0743H26.6657C28.8852 26.0743 30 24.9702 30 22.7823V8.90358C30 6.71573 28.8852 5.61108 26.6657 5.61108H3.33429C1.12554 5.61055 0 6.70448 0 8.90358V22.7829C0 24.9707 1.12554 26.0743 3.33429 26.0743ZM3.36643 24.3654C2.30464 24.3654 1.71 23.7922 1.71 22.6875V21.1479H4.69393C6.26518 21.1479 7.18929 20.2238 7.18929 18.652V13.0232C7.18929 11.4514 6.26518 10.5279 4.69393 10.5279H1.71V8.98769C1.71 7.89376 2.30464 7.32055 3.36643 7.32055H14.1129V10.8991C11.745 11.2816 9.96107 13.3313 9.96107 15.8373C9.96107 18.3434 11.745 20.393 14.1129 20.7863V24.3648L3.36643 24.3654ZM19.9752 15.8379C19.9538 13.3425 18.202 11.3245 15.8234 10.9104V7.32108H26.6336C27.6846 7.32108 28.29 7.8943 28.29 8.98823V10.5279H25.3061C23.7343 10.5279 22.8107 11.452 22.8107 13.0238V18.652C22.8107 20.2238 23.7343 21.1473 25.3061 21.1473H28.29V22.6875C28.29 23.7916 27.6846 24.3654 26.6336 24.3654H15.8229V20.7857C18.2121 20.3818 20.0068 18.3439 19.9752 15.8379ZM25.3377 19.4368C24.8175 19.4368 24.5202 19.1395 24.5202 18.6193V13.0548C24.5202 12.5347 24.8175 12.2373 25.3377 12.2373H28.29V19.4373L25.3377 19.4368ZM4.66232 12.2373C5.18304 12.2373 5.48036 12.5347 5.48036 13.0548V18.6198C5.48036 19.1395 5.18304 19.4373 4.66232 19.4373H1.71054V12.2373H4.66232ZM11.5013 15.8266C11.4988 15.0569 11.7551 14.3087 12.2289 13.7021C12.7027 13.0955 13.3666 12.6657 14.1139 12.4816V19.193C12.6273 18.8105 11.5013 17.4413 11.5013 15.8266ZM18.4361 15.8266C18.4146 17.4407 17.31 18.8105 15.8234 19.193V12.4923C17.3207 12.8743 18.4463 14.2227 18.4361 15.8266Z" fill="url(#paint0_linear_887_381)"/>
</g>
<defs>
<linearGradient id="paint0_linear_887_381" x1="14.9708" y1="-1.90805" x2="14.9708" y2="32.8954" gradientUnits="userSpaceOnUse">
<stop stop-color="#E9CD7E"/>
<stop offset="0.911673" stop-color="#B09040"/>
<stop offset="1" stop-color="#685830"/>
</linearGradient>
<clipPath id="clip0_887_381">
<rect width="30" height="30" fill="white"/>
</clipPath>
</defs>
</svg>
