<svg width="139" height="118" viewBox="0 0 139 118" fill="none" xmlns="http://www.w3.org/2000/svg">
<path d="M27.2585 92.9429C26.1215 93.2309 22.9853 91.5819 22.9853 91.5819C22.9853 91.5819 25.9248 93.54 26.2165 94.6918C26.5083 95.8436 24.8555 98.965 24.8555 98.965C24.8555 98.965 26.8137 96.0255 27.9654 95.7337C29.1172 95.442 32.2386 97.0948 32.2386 97.0948C32.2386 97.0948 29.2973 95.1292 29.0074 93.9849C28.7175 92.8405 30.3684 89.7117 30.3684 89.7117C30.3684 89.7117 28.425 92.6474 27.2585 92.9429Z" fill="#ACACAC"/>
<path d="M126.837 85.3145C125.7 85.6025 122.564 83.9535 122.564 83.9535C122.564 83.9535 125.504 85.9116 125.795 87.0634C126.087 88.2152 124.434 91.3366 124.434 91.3366C124.434 91.3366 126.393 88.3971 127.544 88.1053C128.696 87.8136 131.817 89.4664 131.817 89.4664C131.817 89.4664 128.876 87.5008 128.586 86.3564C128.296 85.2121 129.947 82.0833 129.947 82.0833C129.947 82.0833 128.004 85.019 126.837 85.3145Z" fill="#ACACAC"/>
<path opacity="0.8" d="M22.7498 33.2508C21.6128 33.5388 18.4766 31.8898 18.4766 31.8898C18.4766 31.8898 21.4161 33.8479 21.7079 34.9997C21.9996 36.1514 20.3468 39.2729 20.3468 39.2729C20.3468 39.2729 22.305 36.3334 23.4568 36.0416C24.6085 35.7499 27.73 37.4026 27.73 37.4026C27.73 37.4026 24.7886 35.4371 24.4987 34.2927C24.2088 33.1483 25.8597 30.0195 25.8597 30.0195C25.8597 30.0195 23.9164 32.9553 22.7498 33.2508Z" fill="#ACACAC"/>
<path d="M15.7567 47.5367C14.6197 47.8247 11.4835 46.1756 11.4835 46.1756C11.4835 46.1756 14.4248 48.1412 14.7147 49.2856C15.0046 50.4299 13.3537 53.5588 13.3537 53.5588C13.3537 53.5588 15.3118 50.6192 16.4636 50.3275C17.6154 50.0357 20.7368 51.6885 20.7368 51.6885C20.7368 51.6885 17.7954 49.723 17.5056 48.5786C17.2157 47.4342 18.8666 44.3054 18.8666 44.3054C18.8666 44.3054 16.9158 47.2431 15.7567 47.5367Z" fill="#D6B560"/>
<path opacity="0.8" d="M15.7567 47.5367C14.6197 47.8247 11.4835 46.1756 11.4835 46.1756C11.4835 46.1756 14.4248 48.1412 14.7147 49.2856C15.0046 50.4299 13.3537 53.5588 13.3537 53.5588C13.3537 53.5588 15.3118 50.6192 16.4636 50.3275C17.6154 50.0357 20.7368 51.6885 20.7368 51.6885C20.7368 51.6885 17.7954 49.723 17.5056 48.5786C17.2157 47.4342 18.8666 44.3054 18.8666 44.3054C18.8666 44.3054 16.9158 47.2431 15.7567 47.5367Z" fill="#ACACAC"/>
<path d="M31.5509 47.773C30.1209 48.1352 26.1412 46.05 26.1412 46.05C26.1412 46.05 29.8695 48.5371 30.2365 49.9858C30.6035 51.4346 28.5088 55.3967 28.5088 55.3967C28.5088 55.3967 30.9971 51.673 32.4459 51.306C33.8946 50.9391 37.8555 53.0291 37.8555 53.0291C37.8555 53.0291 34.1331 50.5455 33.7649 49.092C33.3967 47.6386 35.4879 43.6824 35.4879 43.6824C35.4879 43.6824 32.9856 47.4096 31.5509 47.773Z" fill="#ACACAC"/>
<path opacity="0.8" d="M22.7498 33.2508C21.6128 33.5388 18.4766 31.8898 18.4766 31.8898C18.4766 31.8898 21.4161 33.8479 21.7079 34.9997C21.9996 36.1514 20.3468 39.2729 20.3468 39.2729C20.3468 39.2729 22.305 36.3334 23.4568 36.0416C24.6085 35.7499 27.73 37.4026 27.73 37.4026C27.73 37.4026 24.7886 35.4371 24.4987 34.2927C24.2088 33.1483 25.8597 30.0195 25.8597 30.0195C25.8597 30.0195 23.9164 32.9553 22.7498 33.2508Z" fill="#ACACAC"/>
<path opacity="0.8" d="M15.7565 47.5367C14.6195 47.8247 11.4833 46.1756 11.4833 46.1756C11.4833 46.1756 14.4247 48.1412 14.7146 49.2856C15.0045 50.4299 13.3536 53.5588 13.3536 53.5588C13.3536 53.5588 15.3117 50.6192 16.4635 50.3275C17.6152 50.0357 20.7367 51.6885 20.7367 51.6885C20.7367 51.6885 17.7953 49.723 17.5054 48.5786C17.2155 47.4342 18.8665 44.3054 18.8665 44.3054C18.8665 44.3054 16.9157 47.2431 15.7565 47.5367Z" fill="#ACACAC"/>
<path d="M31.551 47.773C30.121 48.1352 26.1414 46.05 26.1414 46.05C26.1414 46.05 29.8697 48.5371 30.2366 49.9858C30.6036 51.4346 28.509 55.3967 28.509 55.3967C28.509 55.3967 30.9972 51.673 32.446 51.306C33.8947 50.9391 37.8557 53.0291 37.8557 53.0291C37.8557 53.0291 34.1332 50.5455 33.765 49.092C33.3969 47.6386 35.488 43.6824 35.488 43.6824C35.488 43.6824 32.9857 47.4096 31.551 47.773Z" fill="#ACACAC"/>
<path opacity="0.8" d="M107.354 22.2464C106.217 22.5344 103.081 20.8854 103.081 20.8854C103.081 20.8854 106.02 22.8435 106.312 23.9953C106.604 25.147 104.951 28.2685 104.951 28.2685C104.951 28.2685 106.909 25.329 108.061 25.0372C109.213 24.7455 112.334 26.3982 112.334 26.3982C112.334 26.3982 109.393 24.4327 109.103 23.2883C108.813 22.1439 110.464 19.0151 110.464 19.0151C110.464 19.0151 108.521 21.9509 107.354 22.2464Z" fill="#ACACAC"/>
<path opacity="0.8" d="M100.361 36.5323C99.2238 36.8203 96.0876 35.1712 96.0876 35.1712C96.0876 35.1712 99.029 37.1368 99.3188 38.2812C99.6087 39.4255 97.9578 42.5544 97.9578 42.5544C97.9578 42.5544 99.916 39.6149 101.068 39.3231C102.219 39.0313 105.341 40.6841 105.341 40.6841C105.341 40.6841 102.4 38.7186 102.11 37.5742C101.82 36.4298 103.471 33.301 103.471 33.301C103.471 33.301 101.52 36.2387 100.361 36.5323Z" fill="#ACACAC"/>
<path d="M116.155 36.7686C114.725 37.1308 110.746 35.0456 110.746 35.0456C110.746 35.0456 114.474 37.5327 114.841 38.9814C115.208 40.4302 113.113 44.3923 113.113 44.3923C113.113 44.3923 115.601 40.6686 117.05 40.3016C118.499 39.9347 122.46 42.0247 122.46 42.0247C122.46 42.0247 118.737 39.5411 118.369 38.0876C118.001 36.6342 120.092 32.678 120.092 32.678C120.092 32.678 117.59 36.4052 116.155 36.7686Z" fill="#ACACAC"/>
<path opacity="0.8" d="M19.1054 73.7545C16.8461 74.3268 10.559 71.0324 10.559 71.0324C10.559 71.0324 16.4491 74.9616 17.0289 77.2504C17.6086 79.5392 14.2994 85.7987 14.2994 85.7987C14.2994 85.7987 18.2305 79.9159 20.5192 79.3361C22.808 78.7564 29.0656 82.0582 29.0656 82.0582C29.0656 82.0582 23.1848 78.1345 22.6031 75.8384C22.0215 73.5422 25.3252 67.292 25.3252 67.292C25.3252 67.292 21.372 73.1804 19.1054 73.7545Z" fill="#D6B560"/>
<path opacity="0.8" d="M40.2169 24.0485C37.9577 24.6207 31.6705 21.3264 31.6705 21.3264C31.6705 21.3264 37.5607 25.2556 38.1404 27.5443C38.7202 29.8331 35.411 36.0926 35.411 36.0926C35.411 36.0926 39.3421 30.2099 41.6308 29.6301C43.9196 29.0503 50.1772 32.3522 50.1772 32.3522C50.1772 32.3522 44.2963 28.4285 43.7147 26.1323C43.1331 23.8362 46.4368 17.5859 46.4368 17.5859C46.4368 17.5859 42.4835 23.4743 40.2169 24.0485Z" fill="#D6B560"/>
<path opacity="0.8" d="M124.141 63.7037C121.882 64.276 115.595 60.9817 115.595 60.9817C115.595 60.9817 121.485 64.9109 122.065 67.1996C122.645 69.4884 119.336 75.7479 119.336 75.7479C119.336 75.7479 123.267 69.8651 125.555 69.2854C127.844 68.7056 134.102 72.0074 134.102 72.0074C134.102 72.0074 128.221 68.0837 127.639 65.7876C127.058 63.4915 130.361 57.2412 130.361 57.2412C130.361 57.2412 126.408 63.1296 124.141 63.7037Z" fill="#D6B560"/>
<path d="M81.6676 16.6434C79.401 17.2176 73.1212 13.9213 73.1212 13.9213C73.1212 13.9213 79.004 17.8524 79.5837 20.1412C80.1635 22.4299 76.8617 28.6876 76.8617 28.6876C76.8617 28.6876 80.7854 22.8067 83.0815 22.2251C85.3777 21.6434 91.6279 24.9471 91.6279 24.9471C91.6279 24.9471 85.7451 21.0161 85.1654 18.7273C84.5856 16.4385 87.8875 10.1809 87.8875 10.1809C87.8875 10.1809 83.9268 16.0711 81.6676 16.6434Z" fill="#D6B560"/>
<path opacity="0.8" d="M81.6676 16.6434C79.401 17.2176 73.1212 13.9213 73.1212 13.9213C73.1212 13.9213 79.004 17.8524 79.5837 20.1412C80.1635 22.4299 76.8617 28.6876 76.8617 28.6876C76.8617 28.6876 80.7854 22.8067 83.0815 22.2251C85.3777 21.6434 91.6279 24.9471 91.6279 24.9471C91.6279 24.9471 85.7451 21.0161 85.1654 18.7273C84.5856 16.4385 87.8875 10.1809 87.8875 10.1809C87.8875 10.1809 83.9268 16.0711 81.6676 16.6434Z" fill="#D6B560"/>
<path d="M71.553 21.0989C70.4234 21.3851 67.2799 19.7379 67.2799 19.7379C67.2799 19.7379 70.2194 21.696 70.5111 22.8478C70.8029 23.9996 69.1501 27.121 69.1501 27.121C69.1501 27.121 71.1137 24.1722 72.2581 23.8824C73.4025 23.5925 76.5332 25.2508 76.5332 25.2508C76.5332 25.2508 73.5918 23.2853 73.3019 22.1409C73.012 20.9965 74.663 17.8677 74.663 17.8677C74.663 17.8677 72.6827 20.8128 71.553 21.0989Z" fill="#D6B560"/>
<path d="M71.553 21.0989C70.4234 21.3851 67.2799 19.7379 67.2799 19.7379C67.2799 19.7379 70.2194 21.696 70.5111 22.8478C70.8029 23.9996 69.1501 27.121 69.1501 27.121C69.1501 27.121 71.1137 24.1722 72.2581 23.8824C73.4025 23.5925 76.5332 25.2508 76.5332 25.2508C76.5332 25.2508 73.5918 23.2853 73.3019 22.1409C73.012 20.9965 74.663 17.8677 74.663 17.8677C74.663 17.8677 72.6827 20.8128 71.553 21.0989Z" fill="#ACACAC"/>
<circle cx="71.5168" cy="70.8303" r="32.5" fill="#181818"/>
<rect opacity="0.01" x="50.2668" y="49.3303" width="41.9085" height="41.9085" rx="2.8169" fill="#D6B560"/>
<path d="M59.5168 70.2818L67.7273 78.4923L83.8893 62.3303" stroke="#D6B560" stroke-width="3" stroke-linecap="round"/>
</svg>
