<svg width="33" height="33" viewBox="0 0 33 33" fill="none" xmlns="http://www.w3.org/2000/svg">
<path d="M8.41367 25.8604L8.34398 25.7324L8.21646 25.6619L4.06773 23.3686L4.06619 23.3678C3.88936 23.2709 3.82281 23.1603 3.80402 23.0138C3.78209 22.8428 3.8237 22.7258 3.9324 22.6151C3.93264 22.6149 3.93288 22.6146 3.93312 22.6144L4.42921 22.1158C4.47728 22.0675 4.53135 22.0359 4.59982 22.0174C4.68863 21.9935 4.75597 21.9934 4.80904 22.0038L4.82277 22.0064L4.83662 22.0083L8.4875 22.5087L8.7342 22.5425L8.90983 22.366L15.3818 15.8614L15.8514 15.3895L15.2673 15.0701L3.98277 8.89908L3.98278 8.89907L3.97908 8.89709C3.70642 8.75094 3.55867 8.54176 3.51249 8.22355C3.46603 7.90352 3.54785 7.65837 3.76575 7.43852C3.76583 7.43844 3.76591 7.43835 3.766 7.43827L4.18028 7.0219C4.3171 6.8844 4.45139 6.81203 4.58453 6.78061C4.74077 6.74375 4.90346 6.74203 5.07844 6.78029L20.1301 10.6559L20.4053 10.7267L20.607 10.5266L27.1205 4.06377L27.1227 4.06149C27.4931 3.68925 27.9508 3.5 28.5323 3.5C29.1138 3.5 29.5707 3.68922 29.9399 4.06108C30.3097 4.43361 30.4991 4.8953 30.5 5.48252C30.5009 6.06851 30.312 6.52848 29.9411 6.89948L29.9403 6.90031L23.4683 13.4049L23.2678 13.6064L23.3384 13.8817L27.1931 28.9197C27.2316 29.122 27.2251 29.313 27.1771 29.4982C27.1311 29.6756 27.0451 29.8256 26.9137 29.9561L26.9117 29.9581L26.7043 30.1666C26.4228 30.4495 26.1327 30.5401 25.7917 30.4845C25.4408 30.4272 25.191 30.2496 25.0114 29.9102L25.0115 29.9102L25.0087 29.905L18.9515 18.7722L18.631 18.1831L18.1579 18.6585L11.6859 25.1631L11.511 25.3389L11.5451 25.5845L12.0429 29.1704L12.0431 29.172C12.0612 29.2992 12.0503 29.4011 12.0221 29.4863C11.9939 29.5714 11.9419 29.6591 11.8518 29.7496L11.6444 29.9581C11.4742 30.1292 11.2923 30.193 11.0574 30.1673C10.8434 30.144 10.6926 30.0477 10.5723 29.8239L10.571 29.8215L8.41367 25.8604Z" stroke="#ACACAC"/>
</svg>
