<svg width="24" height="24" viewBox="0 0 24 24" fill="none" xmlns="http://www.w3.org/2000/svg">
<path d="M20.9665 20.8V20.8002C20.9666 21.1661 20.8285 21.5184 20.5797 21.7866C20.3342 22.0514 19.9987 22.215 19.6392 22.2455L19.504 22.25H4.1165H4.11627C3.75045 22.2501 3.3981 22.112 3.12987 21.8632C2.86507 21.6177 2.70155 21.2822 2.67101 20.9227L2.6665 20.7875V19.7C2.6665 19.7 2.6665 19.7 2.6665 19.7C2.66659 18.476 3.13918 17.2992 3.98573 16.4152C4.8306 15.5328 5.98285 15.01 7.20301 14.9551L7.42513 14.95H16.2165C16.2165 14.95 16.2165 14.95 16.2165 14.95C17.4405 14.9501 18.6173 15.4227 19.5014 16.2692C20.3836 17.1141 20.9065 18.2663 20.9614 19.4864L20.9665 19.7087V20.8ZM11.8165 1.75C13.0763 1.75 14.2845 2.25044 15.1753 3.14124C16.0661 4.03204 16.5665 5.24022 16.5665 6.5C16.5665 7.75978 16.0661 8.96796 15.1753 9.85876C14.2845 10.7496 13.0763 11.25 11.8165 11.25C10.5567 11.25 9.34854 10.7496 8.45775 9.85876C7.56695 8.96796 7.0665 7.75978 7.0665 6.5C7.0665 5.24022 7.56695 4.03204 8.45775 3.14124C9.34854 2.25045 10.5567 1.75 11.8165 1.75Z" stroke="url(#paint0_linear_754_1721)" stroke-width="1.5"/>
<defs>
<linearGradient id="paint0_linear_754_1721" x1="11.7972" y1="-7.08382" x2="11.7972" y2="30.3333" gradientUnits="userSpaceOnUse">
<stop stop-color="#E9CD7E"/>
<stop offset="0.911673" stop-color="#B09040"/>
<stop offset="1" stop-color="#685830"/>
</linearGradient>
</defs>
</svg>
