<svg width="375" height="303" viewBox="0 0 375 303" fill="none" xmlns="http://www.w3.org/2000/svg">
<path fill-rule="evenodd" clip-rule="evenodd" d="M-98.5701 210.202C-100.303 209.064 -101.277 207.074 -101.106 205.008C-101.027 204.074 -100.712 203.163 -100.195 202.375L-97.7444 198.656C-98.2732 197.676 -98.5221 196.549 -98.4287 195.411C-98.3396 194.366 -97.9692 193.364 -97.352 192.505L-95.0091 189.253C-95.5894 188.226 -95.8589 187.035 -95.759 185.817L-95.7594 185.82C-95.663 184.66 -95.233 183.56 -94.5134 182.638L-92.2973 179.805C-92.9149 178.733 -93.2049 177.484 -93.1 176.221L-93.1035 176.22C-92.9962 174.945 -92.5034 173.752 -91.6743 172.768L-89.6201 170.332C-90.2632 169.227 -90.558 167.944 -90.4486 166.628C-90.333 165.23 -89.774 163.943 -88.8321 162.901L-86.9578 160.829C-87.6132 159.692 -87.9151 158.375 -87.8039 157.03C-87.6796 155.536 -87.0386 154.118 -85.9935 153.034L-84.32 151.301C-84.9781 150.138 -85.2811 148.794 -85.1669 147.435C-85.0347 145.822 -84.3198 144.308 -83.1553 143.171L-81.6975 141.75C-82.3469 140.567 -82.645 139.204 -82.5329 137.836C-82.3885 136.098 -81.6002 134.491 -80.3136 133.308L-79.0928 132.184C-79.7335 130.987 -80.0171 129.63 -79.903 128.241L-79.9034 128.244C-79.7503 126.379 -78.8876 124.674 -77.4754 123.444L-76.5012 122.595C-77.121 121.387 -77.3936 120.029 -77.2801 118.644C-77.1147 116.654 -76.175 114.856 -74.6372 113.581L-73.9218 112.988C-74.5143 111.774 -74.773 110.419 -74.661 109.047C-74.4869 106.96 -73.4451 105.015 -71.7991 103.717L-71.351 103.364C-71.9143 102.149 -72.1581 100.803 -72.0453 99.4491C-71.8621 97.2324 -70.7356 95.1934 -68.9614 93.8574L-68.785 93.7244C-69.3162 92.5121 -69.5435 91.1796 -69.4328 89.8475L-69.4292 89.848C-69.2407 87.5474 -68.0729 85.4481 -66.2255 84.0691C-66.7203 82.8669 -66.9292 81.556 -66.8207 80.2495C-66.6291 77.9363 -65.4884 75.8358 -63.6697 74.4194C-64.1362 73.2298 -64.3246 71.9528 -64.2158 70.6505C-64.0209 68.3214 -62.9051 66.2167 -61.112 64.7622C-61.5457 63.5844 -61.7174 62.3284 -61.6108 61.0516L-61.6148 61.0547C-61.4195 58.7066 -60.3218 56.5955 -58.5555 55.1071C-58.9608 53.9422 -59.1176 52.7051 -59.013 51.4517L-59.0095 51.4521C-58.8188 49.1274 -57.7175 46.9745 -55.9909 45.4536C-56.3678 44.2999 -56.5119 43.0814 -56.4117 41.8523L-56.4153 41.8518C-56.2189 39.5136 -55.1365 37.3513 -53.4303 35.7968C-53.783 34.6566 -53.9145 33.4584 -53.8139 32.2524C-53.6198 29.8953 -52.5542 27.7288 -50.8683 26.1449C-51.198 25.0174 -51.3185 23.8367 -51.2198 22.6521L-51.2233 22.6516C-51.0262 20.2784 -49.9737 18.1 -48.3058 16.4863C-48.6126 15.3736 -48.7223 14.2135 -48.6255 13.0517C-48.4279 10.662 -47.3924 8.47378 -45.7447 6.83233C-46.0307 5.73283 -46.1312 4.58978 -46.038 3.44695L-46.0384 3.45049C-45.7464 -0.0522143 -43.7134 -3.11254 -40.5989 -4.73954L235.087 -148.8C237.501 -150.062 240.267 -150.314 242.872 -149.5C245.478 -148.69 247.609 -146.917 248.875 -144.505L393.434 130.517C394.334 132.233 394.725 134.156 394.569 136.078C394.281 139.578 392.247 142.642 389.133 144.269L113.447 288.329C112.057 289.056 110.55 289.446 109.024 289.492C108.017 289.859 106.965 290.058 105.905 290.086C104.886 290.46 103.833 290.652 102.785 290.675C101.779 291.053 100.724 291.254 99.6576 291.274C98.6578 291.654 97.6067 291.856 96.5435 291.872C95.5361 292.26 94.4855 292.454 93.4409 292.468C92.4356 292.865 91.37 293.071 90.2902 293.077C89.3068 293.469 88.2623 293.671 87.2019 293.676C86.207 294.082 85.1451 294.289 84.0664 294.286C83.0837 294.692 82.0312 294.897 80.9596 294.891C79.9603 295.311 78.8994 295.512 77.8453 295.501C76.8501 295.929 75.7885 296.132 74.7338 296.117C73.7574 296.547 72.6965 296.761 71.6102 296.738C70.6255 297.178 69.5654 297.382 68.5125 297.358C67.546 297.805 66.4828 298.024 65.3884 297.991C64.4764 298.419 63.472 298.638 62.4347 298.625C62.3799 298.625 62.3251 298.623 62.2704 298.621C61.2968 299.086 60.2298 299.298 59.1701 299.256C58.1987 299.732 57.1265 299.949 56.0616 299.901C55.0953 300.386 54.0207 300.607 52.9532 300.553C51.994 301.046 50.9195 301.27 49.8513 301.21C48.899 301.712 47.8237 301.941 46.754 301.876C44.9753 302.841 42.7333 302.824 40.9262 301.64L-98.5701 210.202ZM45.2698 301.589C43.9854 301.925 42.5679 301.738 41.3725 300.956L-98.1167 209.519C-99.6016 208.546 -100.435 206.843 -100.287 205.076C-100.222 204.278 -99.9523 203.499 -99.5074 202.826L-97.2585 199.411C-96.9126 199.868 -96.4975 200.276 -96.0216 200.618L43.7162 300.796C44.2038 301.145 44.7278 301.409 45.2698 301.589ZM-96.7813 198.687C-96.4539 199.17 -96.0375 199.6 -95.5419 199.956L44.1883 300.137C44.9132 300.655 45.7306 300.953 46.5596 301.044C46.8247 300.883 47.076 300.696 47.3092 300.483C47.0319 300.331 46.7632 300.155 46.5059 299.955L-92.3263 191.923L-96.7813 198.687ZM-97.2275 197.871C-97.5445 197.134 -97.6817 196.318 -97.6131 195.478C-97.539 194.58 -97.2189 193.717 -96.6895 192.978L-94.5273 189.977C-94.2244 190.367 -93.8704 190.722 -93.4694 191.034L-92.9762 191.418L-97.2275 197.871ZM-92.5269 190.736L-92.967 190.393C-93.3797 190.072 -93.7352 189.697 -94.0271 189.283L-89.3383 182.775L-88.0146 183.886L-92.5269 190.736ZM-87.5648 183.203L-88.8622 182.114L-84.1891 175.628L-83.1757 176.54L-87.5648 183.203ZM-82.5593 177.095L-86.9321 183.734L49.1632 297.937L50.1123 296.496L-82.5593 177.095ZM-82.7221 175.852L-83.7096 174.963L-79.1737 168.667L-78.4485 169.364L-82.7221 175.852ZM-77.8474 169.941L-82.1057 176.406L50.567 295.806L51.5819 294.265L-77.8474 169.941ZM-77.9919 168.671L-78.6918 167.999L-74.2799 161.875L-73.8227 162.342L-77.9919 168.671ZM-73.2361 162.941L-77.3908 169.248L52.0385 293.572L53.1156 291.937L-73.2361 162.941ZM-73.3639 161.645L-73.7963 161.204L-69.4997 155.241L-69.2924 155.465L-73.3639 161.645ZM-68.7197 156.084L-72.7774 162.244L53.5743 291.24L54.7061 289.522L-68.7197 156.084ZM-68.8303 154.763L-69.0133 154.566L-65.3588 149.493L-68.8303 154.763ZM-64.2899 149.358L-68.2577 155.382L55.1693 288.819L56.352 287.023L-64.2899 149.358ZM-59.9427 142.758L-63.8257 148.654L56.8149 286.32L58.048 284.448L-59.9427 142.758ZM-55.6729 136.276L-59.4752 142.049L58.5179 283.735L59.7891 281.805L-55.6729 136.276ZM-53.9383 133.643L-55.1993 135.557L60.2639 281.084L61.5768 279.091L-51.3519 130.053L-53.9383 133.643ZM-40.8877 113.829L-41.8873 115.347L-40.2864 113.3L-39.3794 112.041L-40.8877 113.829ZM-41.5147 113.297L-39.7358 110.597L-40.023 110.167L-44.1478 114.727L-43.5027 115.654L-41.5147 113.297ZM-47.3665 122.18L-45.3522 119.123L-47.6276 121.82L-47.3665 122.18ZM-48.0874 123.275L-47.8472 122.91L-48.1706 122.464L-52.3352 127.402L-51.8333 128.065L-48.0874 123.275ZM-54.643 133.226L-53.6213 131.675L-55.9334 134.632L-55.7878 134.815L-54.643 133.226ZM-39.2492 109.858L-37.9243 107.847L-39.4593 109.544L-39.2492 109.858ZM-35.2825 105.32L-37.0523 108.006L-35.0678 105.654L-35.2825 105.32ZM-34.33 103.873L-34.7912 104.574L-34.5169 105L-33.0759 103.292L-30.8563 100.211L-30.9217 100.106L-34.33 103.873ZM-34.9652 103.355L-35.3217 103.749L-36.1007 102.537L-32.0285 98.3199L-31.8443 98.6171L-34.9652 103.355ZM-31.3491 97.8654L-31.4431 97.7137L-30.8327 97.0815L-31.3491 97.8654ZM-27.7608 93.9001L-30.8758 98.6292L-30.8004 98.7508L-26.9336 94.4763L-27.4629 93.5915L-27.7608 93.9001ZM-28.3924 93.3771L-27.9725 92.7396L-28.8021 91.3527L-32.9067 95.3521L-31.8874 96.9968L-28.3924 93.3771ZM-27.4718 91.9795L-24.1438 86.9274L-24.1858 86.8548L-28.1985 90.7646L-27.4718 91.9795ZM-23.6877 87.7163L-25.3211 90.1961L-23.4027 88.2092L-23.6877 87.7163ZM-21.2111 83.9564L-23.1847 86.9527L-22.812 87.5974L-18.9863 83.6352L-19.6549 82.4401L-21.2111 83.9564ZM-21.8376 83.4266L-20.3589 81.1818L-21.0723 79.9066L-25.1104 83.6219L-24.0034 85.5367L-21.8376 83.4266ZM-19.8532 80.4141L-17.1286 76.2781L-20.4549 79.3385L-19.8532 80.4141ZM-16.1745 76.3098L-19.1146 80.7735L-15.6074 77.3562L-16.1745 76.3098ZM-14.654 74.0013L-15.6656 75.5371L-15.0003 76.7647L-11.522 73.3757L-11.2603 73.0124L-12.0161 71.5744L-14.654 74.0013ZM-15.2785 73.4695L-16.2845 74.3952L-17.4643 72.2183L-13.4959 68.7592L-12.9099 69.874L-15.2785 73.4695ZM-12.4774 70.6968L-12.8042 71.1931L-12.4081 70.8286L-12.4774 70.6968ZM-12.3955 69.0931L-12.8616 68.2064L-10.3951 66.0564L-12.3955 69.0931ZM-8.10736 64.0623L-11.963 69.9159L-11.7848 70.255L-4.33552 63.4011L-3.05393 61.6222C-3.92295 61.4807 -4.81252 61.579 -5.62315 61.8969L-8.10736 64.0623ZM-8.71927 63.5125L-8.57325 63.2908C-7.93826 62.325 -7.05556 61.6178 -6.06308 61.1972L2.8495 53.4285L3.02749 53.1814C3.62531 52.3519 4.40274 51.7264 5.269 51.3195L14.4335 43.3312L14.6354 43.073C15.1826 42.3725 15.8563 41.8269 16.5997 41.4431L26.0024 33.2471L26.2354 32.9709C26.7241 32.3912 27.2978 31.9242 27.9234 31.5727L37.6034 23.1351L37.8464 22.8664C38.2634 22.4049 38.7335 22.0189 39.2393 21.7091L49.1293 13.0884L49.4427 12.7638C49.7905 12.4041 50.1701 12.0928 50.573 11.83L60.744 2.96436L61.0534 2.66298C61.3092 2.41404 61.58 2.18944 61.8628 1.98916L71.112 -6.0729L-14.5933 64.9119L-13.2521 67.4635L-8.71927 63.5125ZM-4.32547 60.7658C-3.72953 60.7143 -3.12342 60.7562 -2.53083 60.8962L0.751568 56.3403L-4.32547 60.7658ZM-1.04453 61.4798L3.53635 57.2651L-0.187822 62.0271L-0.729203 61.6722C-0.832938 61.6042 -0.938099 61.5401 -1.04453 61.4798ZM0.698763 62.6082L3.72606 59.6585L1.04614 62.8359L0.698763 62.6082ZM0.500586 63.4528L0.100853 63.1908L-0.578598 63.8528L-3.53261 67.63L0.500586 63.4528ZM2.14231 63.5544L11.0754 53.6793L11.5796 53.157L150.419 152.693C151.864 153.73 152.636 155.4 152.491 157.171L152.487 157.171C152.413 158.069 152.093 158.932 151.564 159.667L84.2932 253.039L82.264 249.179L140.392 160.933C140.909 160.145 141.225 159.234 141.303 158.304C141.474 156.238 140.504 154.245 138.764 153.109L2.14231 63.5544ZM81.8271 248.348L139.701 160.486C140.146 159.812 140.419 159.034 140.484 158.236L140.488 158.233C140.632 156.465 139.799 154.762 138.315 153.786L1.58895 64.1662L-7.1337 73.8088L-8.84825 75.8416L81.8271 248.348ZM81.7488 249.961L83.7575 253.783L82.1485 256.016L80.1677 252.361L81.7488 249.961ZM79.7234 251.541L81.3119 249.13L-9.41804 76.5172L-12.8982 80.6434L79.7234 251.541ZM79.6588 253.134L81.6191 256.751L80.0298 258.957L78.0979 255.504L79.6588 253.134ZM77.6459 254.695L79.2145 252.314L-13.4629 81.313L-17.0025 85.5097L77.6459 254.695ZM77.5922 256.271L79.5034 259.687L77.9362 261.863L76.0538 258.607L77.5922 256.271ZM75.5937 257.811L77.1402 255.463L-17.5647 86.1763L-21.1654 90.4455L75.5937 257.811ZM75.5493 259.373L77.4106 262.592L75.8651 264.737L74.033 261.675L75.5493 259.373ZM73.5646 260.892L75.0892 258.577L-21.7258 91.1099L-24.064 93.8822L-25.3501 95.5266L73.5646 260.892ZM73.5343 262.432L75.3452 265.459L73.8232 267.572L72.0419 264.697L73.5343 262.432ZM71.5648 263.927L73.0658 261.649L-25.8913 96.2187L-29.5056 100.84L71.5648 263.927ZM71.5466 265.449L73.3064 268.289L71.8134 270.361L70.0834 267.671L71.5466 265.449ZM69.5972 266.915L71.0695 264.68L-30.0418 101.526L-33.7238 106.234L69.5972 266.915ZM69.5898 268.42L71.298 271.077L69.831 273.113L68.1529 270.601L69.5898 268.42ZM67.6574 269.86L69.1037 267.664L-34.2567 106.915L-38.0095 111.714L67.6574 269.86ZM67.6651 271.342L69.3212 273.82L67.882 275.818L66.2564 273.48L67.6651 271.342ZM65.7511 272.754L67.1696 270.6L-38.5381 112.389L-39.6447 113.804L-42.2625 117.438L65.7511 272.754ZM65.7743 274.212L67.3777 276.518L65.9718 278.469L64.399 276.3L65.7743 274.212ZM63.8833 275.589L65.2689 273.486L-42.768 118.139L-46.5204 123.347L63.8833 275.589ZM63.9195 277.028L65.4698 279.166L64.0986 281.069L62.5789 279.064L63.9195 277.028ZM62.0525 278.369L63.4038 276.317L-47.0237 124.046L-50.8522 129.359L62.0525 278.369ZM62.1032 279.786L63.6001 281.761L62.268 283.61L60.8015 281.762L62.1032 279.786ZM60.3267 282.483L61.7699 284.302L60.4804 286.092L59.0673 284.395L60.3267 282.483ZM58.5974 285.108L59.9869 286.776L58.7361 288.513L57.3766 286.961L58.5974 285.108ZM56.9137 287.664L58.2494 289.188L57.0505 290.852L55.744 289.44L56.9137 287.664ZM55.2808 290.143L56.5628 291.529L55.4162 293.121L54.1625 291.841L55.2808 290.143ZM53.7038 292.537L54.9327 293.792L53.8426 295.305L52.641 294.15L53.7038 292.537ZM52.1845 294.844L53.3608 295.974L52.3352 297.397L51.1847 296.361L52.1845 294.844ZM50.73 297.052L51.8547 298.064L51.184 298.995C51.1232 299.079 51.0602 299.161 50.9952 299.241C50.583 299.047 50.1891 298.798 49.8247 298.492L49.7967 298.469L50.73 297.052ZM49.3444 299.155C49.677 299.429 50.0302 299.662 50.3978 299.855C50.1684 300.053 49.9236 300.228 49.6671 300.379C49.33 300.345 48.995 300.278 48.6669 300.178C48.7033 300.126 48.739 300.074 48.7738 300.021L49.3444 299.155ZM47.8789 299.863C47.5766 299.712 47.2849 299.53 47.0083 299.314L-91.8771 191.241L-87.3819 184.417L48.7107 298.624L48.0867 299.571C48.0205 299.672 47.9512 299.769 47.8789 299.863ZM48.11 300.848C48.1828 300.875 48.2559 300.901 48.3294 300.924C48.2054 300.955 48.0802 300.981 47.9542 301.003C48.007 300.952 48.059 300.901 48.11 300.848ZM-0.691672 62.6713L-1.17855 62.3522C-1.34189 62.2452 -1.50939 62.1494 -1.68012 62.0646L-3.7147 63.9365L-8.14498 70.0853L-1.19121 63.31L-0.691672 62.6713ZM-94.9469 185.883C-95.0235 186.803 -94.8544 187.706 -94.475 188.512L-89.9635 182.25L-90.9172 181.45C-91.253 181.169 -91.5544 180.855 -91.8186 180.516L-93.8688 183.137C-94.4926 183.933 -94.8633 184.881 -94.9469 185.883ZM-90.392 180.83L-89.4874 181.589L-84.7978 175.08L-86.4233 173.617L-91.2986 179.851C-91.0411 180.21 -90.7376 180.54 -90.392 180.83ZM-85.9199 172.974L-84.3184 174.415L-79.7669 168.098L-81.1028 166.814L-85.9199 172.974ZM-80.5974 166.168L-79.285 167.429L-74.8582 161.285L-75.9257 160.195L-80.5974 166.168ZM-75.4192 159.547L-74.3747 160.613L-70.0641 154.63L-70.8822 153.746L-75.4192 159.547ZM-70.3733 153.095L-69.5777 153.955L-65.3743 148.121L-65.9602 147.452L-70.3733 153.095ZM-65.4501 146.8L-64.8862 147.444L-60.7833 141.749L-61.1527 141.305L-65.4501 146.8ZM-60.6401 140.65L-60.2924 141.068L-56.2847 135.505L-56.4517 135.294L-60.6401 140.65ZM-25.8606 94.6732L-25.2857 93.8752L-23.8788 92.3199L-24.6053 93.2489L-25.8382 94.7106L-25.8606 94.6732ZM-22.8714 89.1283L-25.9065 93.3409L-26.3585 93.8407L-26.873 92.9806L-22.977 88.9457L-22.8714 89.1283ZM-30.227 99.3377L-30.3397 99.4942L-30.3514 99.4753L-30.227 99.3377ZM-22.0426 87.978L-22.3474 88.401L-22.3862 88.3339L-22.0426 87.978ZM-20.9649 87.8784L-18.5149 84.4779L-18.2756 84.9055L-20.9649 87.8784ZM-19.0497 81.8504L-18.4282 82.9613L-15.0847 78.3206L-15.203 78.1023L-19.0497 81.8504ZM-14.7362 79.2334L-14.6528 79.1176L-14.6426 79.1364L-14.7362 79.2334ZM-14.5959 77.5108L-14.5553 77.5858L-14.2781 77.2011L-14.5959 77.5108ZM-14.1233 78.3828L-10.9013 73.9108L-10.8264 73.8379L-10.3682 74.7095L-14.0484 78.5211L-14.1233 78.3828ZM-6.70054 66.6836L-10.7255 72.2702L-11.3928 71.0008L-6.70054 66.6836ZM-1.34925 60.6534L3.45822 53.9811L5.7188 52.0106C6.42955 51.6956 7.2057 51.5489 7.98106 51.5818L6.62299 53.3183L-1.34925 60.6534ZM8.5776 50.819C8.08858 50.7506 7.59456 50.7449 7.10792 50.7998L11.7722 46.7342L8.5776 50.819ZM13.3961 48.1935L10.0828 51.2419C10.2602 51.3188 10.4349 51.4052 10.6064 51.501L13.3961 48.1935ZM22.0355 42.3283L12.1522 52.5641L150.896 152.031C152.546 153.217 153.469 155.211 153.303 157.238C153.217 158.283 152.847 159.286 152.23 160.144L84.7182 253.848L86.4947 257.228L163.426 158.856C164.05 158.061 164.421 157.109 164.504 156.111L164.504 156.114C164.65 154.365 163.912 152.681 162.527 151.605L22.5522 42.6835C22.3852 42.5533 22.2126 42.4349 22.0355 42.3283ZM85.9407 257.936L84.1825 254.591L82.5811 256.814L84.3155 260.014L85.9407 257.936ZM83.7675 260.715L82.0516 257.549L80.4702 259.744L82.1619 262.768L83.7675 260.715ZM81.6168 263.465L79.9438 260.475L78.3847 262.639L80.0332 265.49L81.6168 263.465ZM79.4885 266.187L77.8591 263.368L76.3221 265.501L77.9265 268.184L79.4885 266.187ZM77.3874 268.873L75.8022 266.223L74.289 268.323L75.849 270.84L77.3874 268.873ZM75.3126 271.526L73.7722 269.041L72.2885 271.1L73.8034 273.456L75.3126 271.526ZM73.2681 274.14L71.7731 271.815L70.3156 273.838L71.7848 276.037L73.2681 274.14ZM71.2549 276.715L69.8058 274.546L68.3768 276.529L69.7997 278.575L71.2549 276.715ZM69.2751 279.246L67.8724 277.229L66.4771 279.166L67.8535 281.064L69.2751 279.246ZM67.3308 281.732L65.975 279.863L64.6149 281.751L65.9443 283.505L67.3308 281.732ZM65.4249 284.169L64.1164 282.443L62.7958 284.275L64.0781 285.892L65.4249 284.169ZM63.5585 286.556L62.2977 284.967L61.0203 286.74L62.2551 288.223L63.5585 286.556ZM61.7398 288.882L60.5268 287.425L59.2887 289.143L60.4758 290.498L61.7398 288.882ZM59.9671 291.148L58.802 289.819L57.6165 291.464L58.7563 292.696L59.9671 291.148ZM58.2461 293.349L57.1289 292.141L55.9964 293.713L57.0891 294.828L58.2461 293.349ZM56.5826 295.476L55.5129 294.384L54.4377 295.876L55.4467 296.846C55.4591 296.857 55.4715 296.869 55.4839 296.881L56.5826 295.476ZM54.8818 297.435L53.9558 296.545L52.9551 297.934C53.3181 298.215 53.7072 298.445 54.1125 298.623C54.1702 298.557 54.2265 298.489 54.2814 298.419L54.9792 297.526C54.9465 297.496 54.914 297.466 54.8818 297.435ZM53.4876 299.231C53.1366 299.055 52.7981 298.844 52.4772 298.597L51.8501 299.468C51.8325 299.492 51.8147 299.517 51.7968 299.541C52.1168 299.632 52.4432 299.693 52.7714 299.723C53.0213 299.581 53.2611 299.417 53.4876 299.231ZM51.3835 300.267C51.3271 300.249 51.271 300.23 51.2151 300.211C51.1754 300.25 51.1352 300.289 51.0946 300.326C51.1914 300.309 51.2877 300.29 51.3835 300.267ZM9.41584 51.8556C9.63802 51.933 9.85649 52.027 10.0695 52.1375L9.11924 53.2642L3.16652 59.0641L7.23487 53.8622L9.41584 51.8556ZM-91.7479 179.102C-92.1729 178.242 -92.3658 177.271 -92.2848 176.292C-92.1916 175.185 -91.7626 174.151 -91.0445 173.298L-89.1406 171.04C-88.91 171.336 -88.6512 171.613 -88.3655 171.87L-87.0309 173.071L-91.7479 179.102ZM-86.5275 172.427L-87.8202 171.263C-88.1136 171 -88.3743 170.71 -88.6005 170.4L-83.5741 164.441L-81.694 166.246L-86.5275 172.427ZM-81.1886 165.6L-83.0468 163.815L-78.1113 157.963L-76.5015 159.607L-81.1886 165.6ZM-75.995 158.959L-77.5834 157.338L-72.8028 151.67L-71.4433 153.139L-75.995 158.959ZM-70.9344 152.489L-72.2731 151.041L-67.6346 145.542L-66.5075 146.828L-70.9344 152.489ZM-65.9973 146.176L-67.1041 144.913L-62.5978 139.57L-61.6868 140.664L-65.9973 146.176ZM-61.1743 140.009L-62.0654 138.939L-57.6829 133.743L-56.9733 134.637L-61.1743 140.009ZM-56.4551 133.974L-57.145 133.105L-52.8754 128.042L-52.3541 128.73L-56.4551 133.974ZM-8.38107 73.8294L-9.17996 74.8509L-7.81639 73.3435L-7.1564 72.5611L-8.38107 73.8294ZM-16.8336 83.3114L-14.2029 79.9477L-14.2337 79.8907L-17.9771 83.7676L-17.6978 84.2668L-16.8336 83.3114ZM-8.99 73.2821L-4.93638 68.0989L-10.2147 73.2419L-9.76934 74.0893L-8.99 73.2821ZM15.0314 43.8933L10.322 49.9149L17.5652 43.2505L18.9517 41.6065C18.2952 41.6591 17.6496 41.8355 17.0533 42.1309L15.0314 43.8933ZM18.5483 40.8278C18.9129 40.7778 19.2819 40.761 19.6505 40.7781L22.5524 37.3376L18.5483 40.8278ZM21.1657 41.0449L22.5729 39.7502L21.3474 41.1049C21.3141 41.0934 21.2807 41.0821 21.2473 41.0711C21.2201 41.0622 21.193 41.0534 21.1657 41.0449ZM22.6179 41.7251L30.3541 33.7132L32.3434 31.7749C33.0844 31.97 33.7946 32.3272 34.4193 32.8513L174.636 150.513C175.965 151.629 176.672 153.323 176.529 155.052L176.529 155.048C176.44 156.155 176.011 157.19 175.288 158.045L88.4688 260.983L86.9108 258.019L164.071 159.356C164.79 158.434 165.224 157.335 165.32 156.174C165.486 154.155 164.63 152.202 163.031 150.957L23.0556 42.0358C22.9131 41.9248 22.767 41.8213 22.6179 41.7251ZM86.3567 258.728L87.8981 261.66L86.26 263.602L84.7392 260.796L86.3567 258.728ZM84.1912 261.497L85.6952 264.272L84.0768 266.191L82.5936 263.54L84.1912 261.497ZM82.0484 264.237L83.5145 266.857L81.918 268.75L80.4731 266.251L82.0484 264.237ZM79.9284 266.948L81.3559 269.417L79.781 271.284L78.3751 268.934L79.9284 266.948ZM77.836 269.623L79.2243 271.944L77.6729 273.783L76.3066 271.579L77.836 269.623ZM75.7702 272.265L77.1187 274.441L75.5969 276.245L74.2705 274.182L75.7702 272.265ZM73.7351 274.867L75.0433 276.901L73.5473 278.675L72.2617 276.751L73.7351 274.867ZM71.7318 277.428L72.999 279.325L71.5313 281.065L70.2869 279.276L71.7318 277.428ZM69.7623 279.947L70.9881 281.709L69.5543 283.409L68.3515 281.751L69.7623 279.947ZM67.8288 282.419L69.0127 284.052L67.6144 285.709L66.4537 284.177L67.8288 282.419ZM65.9342 284.842L67.0757 286.348L65.7177 287.958L64.5994 286.549L65.9342 284.842ZM64.0798 287.213L65.1784 288.598L63.8646 290.155L62.7889 288.864L64.0798 287.213ZM62.2736 289.523L63.3292 290.79L62.0554 292.3L61.0227 291.122L62.2736 289.523ZM60.5141 291.772L61.5264 292.928L60.3073 294.373L59.3172 293.303L60.5141 291.772ZM58.807 293.955L59.7761 295.003L58.6253 296.367C58.5004 296.259 58.3795 296.146 58.2627 296.027L57.6646 295.416L58.807 293.955ZM57.1581 296.064L57.6786 296.595C57.8142 296.733 57.9547 296.865 58.0998 296.99L57.3783 297.846C57.3307 297.902 57.2821 297.958 57.2326 298.012C56.8436 297.851 56.4685 297.647 56.1152 297.397L57.1581 296.064ZM55.6117 298.041C55.9213 298.262 56.2458 298.453 56.5811 298.614C56.36 298.787 56.1276 298.94 55.8866 299.074C55.5656 299.047 55.2462 298.992 54.9324 298.91L55.6117 298.041ZM54.3256 299.579C54.3661 299.593 54.4068 299.606 54.4475 299.618C54.3779 299.634 54.308 299.648 54.2379 299.661C54.2674 299.634 54.2966 299.607 54.3256 299.579ZM20.742 41.7741C20.6453 41.7476 20.548 41.724 20.4502 41.7032L18.1934 43.7796L15.1492 47.389L19.4788 43.1706L20.742 41.7741ZM-89.633 166.695C-89.7197 167.74 -89.5148 168.761 -89.0546 169.662L-84.169 163.869L-85.8137 162.289C-86.0599 162.053 -86.2853 161.8 -86.4888 161.533L-88.2229 163.45C-89.0461 164.359 -89.5334 165.48 -89.633 166.695ZM-85.2489 161.7L-83.6417 163.244L-78.6898 157.373L-80.7878 155.231L-85.9306 160.916C-85.7294 161.195 -85.5017 161.457 -85.2489 161.7ZM-80.24 154.625L-78.1619 156.747L-73.3659 151.061L-75.211 149.066L-80.24 154.625ZM-74.6618 148.459L-72.8361 150.433L-68.1831 144.916L-69.794 143.078L-74.6618 148.459ZM-69.2445 142.47L-67.6525 144.287L-63.1326 138.928L-64.5262 137.254L-69.2445 142.47ZM-63.9752 136.645L-62.6001 138.297L-58.2046 133.085L-59.3961 131.583L-63.9752 136.645ZM-58.84 130.968L-57.6666 132.447L-53.3846 127.37L-54.3877 126.047L-58.84 130.968ZM-53.8297 125.43L-52.8445 126.73L-48.668 121.778L-49.4951 120.638L-53.8297 125.43ZM-48.9345 120.018L-48.125 121.134L-44.0472 116.3L-44.7094 115.348L-48.9345 120.018ZM9.19892 54.444L9.75745 53.7818L10.7882 52.7775L10.4935 53.1032L9.19892 54.444ZM22.3626 38.8365L26.6094 33.8013L28.3801 32.2578C28.8412 32.0053 29.3339 31.8243 29.8405 31.7164L28.547 33.1462L22.3626 38.8365ZM30.6821 30.786C30.4495 30.7966 30.2177 30.8201 29.9877 30.8565L32.9698 28.2571L30.6821 30.786ZM42.7909 21.5952L33.0101 31.1252C33.697 31.3649 34.3525 31.7303 34.9418 32.2241L175.158 149.889C176.691 151.173 177.506 153.128 177.341 155.118C177.237 156.394 176.741 157.587 175.912 158.571L88.8776 261.761L90.2447 264.362L187.154 157.235C187.973 156.329 188.461 155.204 188.561 153.99L188.56 153.993C188.705 152.254 188.045 150.588 186.748 149.421L46.2903 23.0157C45.2876 22.1139 44.0438 21.6443 42.7909 21.5952ZM89.6587 265.01L88.3068 262.438L86.6764 264.371L88.0103 266.832L89.6587 265.01ZM87.4302 267.473L86.1116 265.04L84.5013 266.95L85.8014 269.274L87.4302 267.473ZM85.2236 269.912L83.939 267.616L82.3509 269.499L83.6167 271.689L85.2236 269.912ZM83.0387 272.328L81.7888 270.166L80.2226 272.022L81.4534 274.08L83.0387 272.328ZM80.8807 274.713L79.666 272.682L78.1237 274.511L79.3189 276.439L80.8807 274.713ZM78.7483 277.07L77.5695 275.168L76.0572 276.961L77.2164 278.764L78.7483 277.07ZM76.6461 279.394L75.5037 277.617L74.0178 279.379L75.1401 281.059L76.6461 279.394ZM74.5749 281.684L73.4694 280.029L72.0122 281.757L73.0973 283.317L74.5749 281.684ZM72.537 283.936L71.469 282.401L70.0462 284.088L71.0936 285.532L72.537 283.936ZM70.5345 286.15L69.5046 284.73L68.118 286.374L69.1271 287.706L70.5345 286.15ZM68.5706 288.321L67.5793 287.013L66.2335 288.608L67.2041 289.832L68.5706 288.321ZM66.6465 290.448L65.6942 289.248L64.3933 290.79L65.3249 291.909L66.6465 290.448ZM64.7709 292.521L63.8578 291.425L62.5976 292.919L63.4899 293.937L64.7709 292.521ZM62.9421 294.543L62.0686 293.546L60.8637 294.975L61.0754 295.204C61.2908 295.437 61.5212 295.651 61.7646 295.845L62.9421 294.543ZM60.4718 295.755L60.3325 295.605L59.2762 296.857C59.6148 297.077 59.9736 297.26 60.348 297.406C60.3912 297.361 60.4337 297.316 60.4757 297.269L61.2165 296.45C60.9541 296.239 60.7052 296.007 60.4718 295.755ZM59.6686 298.003C59.3491 297.855 59.0411 297.682 58.747 297.484L58.0722 298.285C58.3769 298.358 58.6864 298.407 58.9973 298.43C59.2291 298.305 59.4536 298.163 59.6686 298.003ZM57.5054 298.975C57.4952 298.972 57.485 298.968 57.4749 298.965C57.4627 298.962 57.4505 298.958 57.4384 298.954L57.4253 298.966L57.4121 298.978C57.4047 298.984 57.3973 298.991 57.3899 298.998C57.415 298.993 57.44 298.988 57.465 298.983C57.4785 298.98 57.4919 298.977 57.5054 298.975ZM-86.378 160.188C-86.8631 159.248 -87.0816 158.181 -86.9919 157.097C-86.884 155.789 -86.3202 154.55 -85.4044 153.599L-83.8631 152.003C-83.6801 152.249 -83.4793 152.484 -83.2616 152.705L-81.3627 154.644L-86.378 160.188ZM-80.8149 154.039L-82.6775 152.137C-82.9015 151.908 -83.105 151.663 -83.2869 151.406L-78.0568 145.989L-75.77 148.462L-80.8149 154.039ZM-75.2208 147.855L-77.4896 145.402L-72.3877 140.118L-70.338 142.457L-75.2208 147.855ZM-69.7884 141.85L-71.8205 139.531L-66.8861 134.42L-65.056 136.618L-69.7884 141.85ZM-64.505 136.009L-66.318 133.832L-61.5389 128.882L-59.9125 130.932L-64.505 136.009ZM-59.3564 130.318L-60.9659 128.289L-56.328 123.486L-54.8914 125.382L-59.3564 130.318ZM-54.3334 124.765L-55.7535 122.891L-51.2464 118.223L-49.9867 119.96L-54.3334 124.765ZM-49.4261 119.34L-50.6696 117.626L-46.2839 113.084L-45.1896 114.657L-49.4261 119.34ZM-44.6279 114.036L-45.7064 112.485L-41.4318 108.058L-40.4923 109.465L-44.6279 114.036ZM-39.9285 108.841L-40.8525 107.459L-36.6834 103.141L-35.8892 104.376L-39.9285 108.841ZM29.147 33.7016L28.7745 34.1134L29.6919 33.2196L29.8586 33.0469L29.147 33.7016ZM38.1813 23.7145L35.1209 27.0977L39.4384 23.1252L40.5581 21.9655C40.2691 22.0772 39.9879 22.2138 39.7181 22.375L38.1813 23.7145ZM41.44 20.8741C41.5078 20.8619 41.5758 20.8509 41.6439 20.8409L42.5257 19.9277L41.44 20.8741ZM43.5567 20.849L51.0203 13.5768L53.0831 11.6789C54.8553 11.3396 56.7618 11.8347 58.1582 13.1763L198.857 148.326C200.106 149.526 200.739 151.204 200.596 152.928L200.6 152.929C200.492 154.237 199.928 155.479 199.016 156.427L91.8475 267.411L90.6487 265.13L187.76 157.78C188.702 156.738 189.261 155.451 189.376 154.057C189.542 152.063 188.783 150.151 187.297 148.812L46.8359 22.406C45.883 21.5485 44.7392 21.0321 43.5567 20.849ZM90.0627 265.778L91.2475 268.032L89.5908 269.748L88.4222 267.592L90.0627 265.778ZM87.842 268.233L88.9966 270.363L87.3595 272.059L86.2214 270.024L87.842 268.233ZM85.6436 270.663L86.7674 272.672L85.1523 274.345L84.0453 272.43L85.6436 270.663ZM83.4673 273.069L84.5596 274.958L82.966 276.609L81.891 274.811L83.4673 273.069ZM81.3183 275.445L82.3786 277.217L80.8085 278.843L79.7659 277.161L81.3183 275.445ZM79.1953 277.791L80.2229 279.45L78.6829 281.044L77.6732 279.474L79.1953 277.791ZM77.1029 280.104L78.0972 281.651L76.5833 283.219L75.6072 281.758L77.1029 280.104ZM75.0419 282.383L76.0024 283.82L74.517 285.359L73.5751 284.004L75.0419 282.383ZM73.0148 284.624L73.9409 285.955L72.49 287.458L71.5828 286.207L73.0148 284.624ZM71.0237 286.825L71.9148 288.053L70.5003 289.518L69.6282 288.367L71.0237 286.825ZM69.0717 288.982L69.9273 290.112L68.5544 291.533L67.7178 290.479L69.0717 288.982ZM67.1601 291.095L67.9798 292.128L66.6525 293.503L65.8519 292.542L67.1601 291.095ZM65.2978 293.154L66.0654 294.076L66.0811 294.095L64.9 295.318C64.5932 295.093 64.3029 294.837 64.0337 294.552L65.2978 293.154ZM63.488 295.155C63.7528 295.431 64.0352 295.681 64.332 295.906L63.569 296.696C63.5347 296.732 63.5001 296.767 63.4651 296.801C63.109 296.671 62.7661 296.507 62.4404 296.313L63.488 295.155ZM61.8841 296.928C62.1642 297.104 62.456 297.26 62.7575 297.394C62.5459 297.544 62.3263 297.678 62.1003 297.796C61.7998 297.775 61.5038 297.732 61.2141 297.668L61.8841 296.928ZM60.5497 298.338L60.5512 298.338L60.5487 298.339L60.5497 298.338ZM-84.3513 147.503C-84.443 148.614 -84.2196 149.713 -83.7237 150.683L-78.612 145.389L-80.7094 143.122C-80.9047 142.911 -81.0857 142.689 -81.2517 142.458L-82.5833 143.755C-83.6068 144.754 -84.2329 146.083 -84.3513 147.503ZM-80.1093 142.57L-78.0448 144.802L-72.9277 139.502L-75.3644 136.721L-80.6591 141.88C-80.4935 142.122 -80.31 142.352 -80.1093 142.57ZM-74.7808 136.153L-72.3605 138.914L-67.4118 133.789L-69.6261 131.13L-74.7808 136.153ZM-69.042 130.561L-66.8437 133.201L-62.051 128.237L-64.0592 125.706L-69.042 130.561ZM-63.4705 125.132L-61.478 127.644L-56.8273 122.827L-58.6439 120.429L-63.4705 125.132ZM-58.0539 119.855L-56.2528 122.232L-51.7335 117.551L-53.3717 115.292L-58.0539 119.855ZM-52.7798 114.716L-51.1567 116.954L-46.7595 112.4L-48.2312 110.284L-52.7798 114.716ZM-47.6389 109.707L-46.182 111.802L-41.8964 107.363L-43.2123 105.394L-47.6389 109.707ZM-42.6187 104.815L-41.3172 106.763L-37.1377 102.434L-38.3077 100.615L-42.6187 104.815ZM-37.7109 100.033L-36.5549 101.831L-32.4727 97.603L-33.5059 95.9359L-37.7109 100.033ZM49.6471 13.7323L49.7203 13.6565L49.8949 13.5043L49.6471 13.7323ZM63.6593 1.94808L54.0735 10.7677C55.7437 10.7443 57.4236 11.3504 58.7186 12.5939L199.418 147.74C200.845 149.112 201.571 151.026 201.408 152.999C201.288 154.49 200.643 155.911 199.598 156.991L92.2468 268.171L93.2995 270.173L210.871 155.619C211.894 154.623 212.52 153.291 212.639 151.872L212.642 151.872C212.783 150.158 212.174 148.469 210.968 147.238L70.0283 3.34801C68.3248 1.60697 65.8041 1.13658 63.6593 1.94808ZM92.6867 270.77L91.6469 268.792L89.9982 270.5L91.0233 272.391L92.6867 270.77ZM90.4162 272.983L89.404 271.115L87.7752 272.802L88.7724 274.584L90.4162 272.983ZM88.1671 275.174L87.1831 273.415L85.5767 275.079L86.5453 276.754L88.1671 275.174ZM85.9392 277.345L84.984 275.693L83.3995 277.333L84.3389 278.904L85.9392 277.345ZM83.7379 279.49L82.8121 277.942L81.2516 279.558L82.1612 281.026L83.7379 279.49ZM81.5617 281.61L80.666 280.165L79.1361 281.749L80.0154 283.117L81.5617 281.61ZM79.4155 283.701L78.5504 282.356L77.0469 283.913L77.8953 285.182L79.4155 283.701ZM77.3 285.762L76.4661 284.514L74.9917 286.041L75.8084 287.216L77.3 285.762ZM75.2177 287.791L74.4156 286.638L72.9764 288.128L73.7611 289.21L75.2177 287.791ZM73.1709 289.785L72.4012 288.724L70.999 290.176L71.751 291.169L73.1709 289.785ZM71.1628 291.742L70.426 290.77L69.066 292.178L69.5067 292.734C69.5998 292.851 69.6961 292.965 69.7953 293.074L71.1628 291.742ZM68.8616 293.24L68.4914 292.773L67.2067 294.104C67.4677 294.354 67.7469 294.581 68.0418 294.783L69.208 293.647C69.0887 293.516 68.9731 293.381 68.8616 293.24ZM67.4472 295.362C67.1639 295.159 66.894 294.935 66.6395 294.691L65.6027 295.765C65.9196 295.938 66.2489 296.083 66.5865 296.199C66.6132 296.174 66.6397 296.149 66.6659 296.124L67.4472 295.362ZM65.8542 296.787C65.5692 296.666 65.2907 296.526 65.0209 296.367L64.3586 297.054C64.6387 297.11 64.9247 297.148 65.2149 297.166C65.435 297.053 65.6485 296.927 65.8542 296.787ZM-81.0864 141.155C-81.5852 140.158 -81.8101 139.032 -81.7173 137.904C-81.5916 136.369 -80.8961 134.951 -79.7612 133.904L-78.6601 132.891C-78.504 133.116 -78.334 133.333 -78.1505 133.542L-75.9041 136.105L-81.0864 141.155ZM-75.3204 135.537L-77.5379 133.006C-77.7262 132.791 -77.8984 132.567 -78.054 132.333L-72.7148 127.421L-70.1508 130.5L-75.3204 135.537ZM-69.5668 129.931L-72.1159 126.87L-66.9249 122.094L-64.5699 125.062L-69.5668 129.931ZM-63.9812 124.489L-66.3216 121.539L-61.3024 116.921L-59.1414 119.773L-63.9812 124.489ZM-58.5514 119.198L-60.6981 116.365L-55.8372 111.893L-53.8566 114.624L-58.5514 119.198ZM-53.2647 114.047L-55.2313 111.335L-50.5167 106.997L-48.7041 109.604L-53.2647 114.047ZM-48.1119 109.027L-49.9108 106.44L-45.3295 102.225L-43.674 104.703L-48.1119 109.027ZM-43.0804 104.124L-44.7226 101.666L-40.2673 97.5672L-38.7587 99.9134L-43.0804 104.124ZM-38.1618 99.3318L-39.6574 97.006L-35.3173 93.0129L-33.9466 95.2248L-38.1618 99.3318ZM-33.3474 94.641L-34.7053 92.4498L-30.4744 88.5571L-29.2331 90.6322L-33.3474 94.641ZM-28.6295 90.0441L-29.8581 87.9901L-25.7268 84.1891L-24.6075 86.1253L-28.6295 90.0441ZM64.9012 0.805473C66.9382 0.542693 69.071 1.20216 70.6127 2.77596L211.556 146.67C212.925 148.067 213.618 149.988 213.458 151.939C213.326 153.553 212.611 155.067 211.447 156.2L93.6964 270.929L94.6191 272.684L222.733 154.808C223.867 153.765 224.563 152.343 224.689 150.809L224.689 150.805C224.833 149.099 224.247 147.398 223.081 146.139L81.8997 -6.49088C79.7467 -8.81793 76.1912 -9.10311 73.7026 -7.2478L72.7821 -6.44548L64.9012 0.805473ZM93.0837 271.526L93.9946 273.259L92.3257 274.794L91.4284 273.138L93.0837 271.526ZM90.8212 273.73L91.7067 275.364L90.0574 276.881L89.1859 275.323L90.8212 273.73ZM88.5806 275.913L89.44 277.449L87.8127 278.946L86.9676 277.485L88.5806 275.913ZM86.3615 278.075L87.1942 279.516L85.5885 280.993L84.7705 279.625L86.3615 278.075ZM84.1695 280.211L84.9749 281.558L83.3928 283.013L82.6025 281.738L84.1695 280.211ZM82.003 282.322L82.7805 283.577L81.2291 285.004L80.4669 283.819L82.003 282.322ZM79.8669 284.403L80.616 285.568L79.0907 286.971L78.3574 285.874L79.8669 284.403ZM77.7621 286.454L78.4821 287.532L76.9856 288.908L76.2818 287.896L77.7621 286.454ZM75.6911 288.472L76.3814 289.464L74.9202 290.809L74.2463 289.88L75.6911 288.472ZM73.6562 290.455L74.3161 291.365L72.9401 292.631C72.7176 292.408 72.5077 292.167 72.3124 291.91L72.2488 291.826L73.6562 290.455ZM71.6605 292.399L71.6619 292.401C71.8733 292.68 72.1 292.941 72.3398 293.183L71.1845 294.246C70.9042 294.068 70.635 293.868 70.3797 293.647L71.6605 292.399ZM69.7916 294.22C70.038 294.437 70.2961 294.636 70.564 294.817L69.7624 295.554C69.7556 295.561 69.7487 295.567 69.7419 295.573C69.7311 295.583 69.7203 295.593 69.7094 295.603C69.3858 295.498 69.0721 295.368 68.7704 295.215L69.7916 294.22ZM68.1573 295.812C68.4119 295.954 68.6749 296.08 68.9452 296.191C68.7484 296.319 68.5452 296.435 68.3364 296.539C68.0597 296.524 67.784 296.492 67.5112 296.442L68.1573 295.812ZM-79.0874 128.308C-79.1833 129.467 -78.9671 130.599 -78.4699 131.611L-73.2357 126.795L-75.5983 123.958C-75.7718 123.75 -75.9327 123.534 -76.0807 123.312L-76.936 124.057C-78.1853 125.148 -78.9507 126.659 -79.0874 128.308ZM-74.9701 123.443L-72.6368 126.244L-67.4317 121.455L-70.097 118.096L-75.4615 122.772C-75.3131 123.004 -75.1492 123.228 -74.9701 123.443ZM-69.48 117.558L-66.8284 120.9L-61.7958 116.27L-64.2644 113.012L-69.48 117.558ZM-63.6467 112.473L-61.1916 115.714L-56.318 111.23L-58.6037 108.078L-63.6467 112.473ZM-57.9848 107.538L-55.7121 110.672L-50.9855 106.323L-53.101 103.281L-57.9848 107.538ZM-52.4824 102.742L-50.3796 105.766L-45.787 101.54L-47.7437 98.6115L-52.4824 102.742ZM-47.1244 98.0717L-45.1801 100.982L-40.714 96.8725L-42.5222 94.0602L-47.1244 98.0717ZM-41.9002 93.518L-40.1041 96.3113L-35.7538 92.3087L-37.4229 89.6153L-41.9002 93.518ZM-36.799 89.0715L-35.1418 91.7456L-30.9011 87.8438L-32.4397 85.2717L-36.799 89.0715ZM-31.8116 84.7242L-30.2848 87.2767L-26.1442 83.467L-27.5599 81.0182L-31.8116 84.7242ZM-26.932 80.4709L-25.5278 82.8999L-21.4808 79.1763L-22.7808 76.8525L-26.932 80.4709ZM-22.1522 76.3045L-20.8634 78.6082L-16.9035 74.9647L-18.0943 72.7675L-22.1522 76.3045ZM84.8028 -16.9234L75.8294 -9.10162C78.1819 -9.63261 80.749 -8.93235 82.4993 -7.03924L223.681 145.591C224.999 147.018 225.666 148.947 225.504 150.879C225.36 152.615 224.571 154.225 223.285 155.408L95.0117 273.431L95.8196 274.968L234.594 154.004C235.847 152.914 236.608 151.406 236.745 149.754L236.749 149.754C236.895 148.03 236.341 146.358 235.2 145.055L93.777 -16.3183C91.4647 -18.9534 87.4437 -19.2241 84.8028 -16.9234ZM95.1841 275.522L94.3871 274.005L92.7263 275.533L93.5106 276.98L95.1841 275.522ZM92.8805 277.53L92.1073 276.103L90.4666 277.613L91.2266 278.971L92.8805 277.53ZM90.598 279.519L89.8492 278.181L88.2308 279.67L88.9662 280.942L90.598 279.519ZM88.3361 281.491L87.6123 280.239L86.016 281.708L86.7258 282.894L88.3361 281.491ZM86.1006 283.439L85.4024 282.272L83.8301 283.719L84.514 284.822L86.1006 283.439ZM83.8898 285.366L83.2178 284.282L81.6767 285.7L82.3341 286.722L83.8898 285.366ZM81.7087 287.268L81.0636 286.264L79.5492 287.658L80.1793 288.601L81.7087 287.268ZM79.5582 289.142L78.9405 288.218L77.4555 289.584L77.9273 290.262C77.9709 290.325 78.0152 290.387 78.0604 290.448L79.5582 289.142ZM77.2586 290.726L76.8512 290.14L75.4137 291.463C75.6229 291.715 75.8472 291.951 76.0851 292.169L77.4453 290.984C77.3816 290.899 77.3194 290.813 77.2586 290.726ZM75.4665 292.709C75.2364 292.492 75.0181 292.261 74.8128 292.015L73.552 293.176C73.7988 293.37 74.0567 293.547 74.3236 293.705L75.4665 292.709ZM73.6799 294.266C73.4265 294.104 73.1812 293.927 72.9453 293.734L71.939 294.66C72.2296 294.796 72.5285 294.91 72.8333 295.004C72.8406 294.997 72.848 294.991 72.8553 294.985L73.6799 294.266ZM72.0381 295.59C71.7855 295.491 71.5375 295.378 71.2953 295.252L70.6619 295.835C70.8228 295.861 70.9853 295.882 71.1494 295.897C71.2471 295.906 71.3447 295.913 71.4421 295.918C71.645 295.82 71.844 295.711 72.0381 295.59ZM-75.8661 122.041C-76.352 121.014 -76.5607 119.874 -76.4645 118.711C-76.3165 116.944 -75.4853 115.343 -74.1144 114.21L-73.5166 113.715C-73.3717 113.944 -73.2139 114.167 -73.0435 114.382L-70.605 117.456L-75.8661 122.041ZM-69.988 116.918L-72.4019 113.875C-72.5768 113.655 -72.7368 113.426 -72.8815 113.189L-67.5047 108.735L-64.7587 112.36L-69.988 116.918ZM-64.141 111.821L-66.8745 108.213L-61.6459 103.883L-59.085 107.414L-64.141 111.821ZM-58.4661 106.875L-61.0147 103.36L-55.9586 99.1724L-53.57 102.607L-58.4661 106.875ZM-52.9514 102.068L-55.3281 98.6502L-50.429 94.5925L-48.201 97.927L-52.9514 102.068ZM-47.5818 97.3872L-49.7981 94.07L-45.0464 90.1345L-42.9686 93.3661L-47.5818 97.3872ZM-42.3466 92.8239L-44.4132 89.61L-39.7961 85.7859L-37.8588 88.9121L-42.3466 92.8239ZM-37.2348 88.3682L-39.1611 85.26L-34.6711 81.5412L-32.8655 84.5597L-37.2348 88.3682ZM-32.2375 84.0123L-34.0321 81.012L-29.658 77.3891L-27.9763 80.298L-32.2375 84.0123ZM-27.3484 79.7507L-29.0195 76.8603L-24.7532 73.3268L-23.1881 76.1243L-27.3484 79.7507ZM-22.5595 75.5764L-24.1142 72.7975L-19.9481 69.347L-18.493 72.0318L-22.5595 75.5764ZM-17.863 71.4826L-19.3079 68.8167L-15.2376 65.4455L-13.8863 68.0164L-17.863 71.4826ZM86.5914 -18.8936L96.3898 -27.0091C99.1768 -29.3166 103.328 -28.9314 105.648 -26.1502L247.311 143.968C248.417 145.295 248.948 146.974 248.806 148.695L248.803 148.691C248.655 150.462 247.824 152.06 246.452 153.196L96.9143 277.05L96.2101 275.711L235.134 154.617C236.542 153.387 237.408 151.686 237.561 149.821C237.721 147.873 237.1 145.99 235.812 144.52L94.39 -16.8577C92.4015 -19.1257 89.2819 -19.8391 86.5914 -18.8936ZM95.5746 276.265L96.2687 277.585L94.5912 278.974L93.9093 277.716L95.5746 276.265ZM93.2792 278.265L93.9509 279.505L92.2932 280.878L91.634 279.699L93.2792 278.265ZM91.0053 280.247L91.6541 281.407L90.0184 282.762L89.3825 281.662L91.0053 280.247ZM88.7525 282.211L89.3776 283.293L87.7636 284.629L87.1517 283.606L88.7525 282.211ZM86.5265 284.151L87.1276 285.156L85.5372 286.473L84.9499 285.526L86.5265 284.151ZM84.3256 286.07L84.9018 287L83.3427 288.291L82.7804 287.417L84.3256 286.07ZM82.1551 287.962L82.7059 288.818L81.2029 290.063C81.0382 289.863 80.8827 289.654 80.737 289.435L80.6367 289.285L82.1551 287.962ZM80.0156 289.827L80.0553 289.886C80.2177 290.129 80.3909 290.362 80.5743 290.584L79.2291 291.698C79.0019 291.505 78.7856 291.298 78.5814 291.077L80.0156 289.827ZM77.9675 291.612C78.1658 291.828 78.3746 292.032 78.593 292.225L77.4606 293.163C77.2064 293.022 76.9611 292.865 76.7258 292.694L77.9675 291.612ZM76.0959 293.243C76.3191 293.414 76.5509 293.572 76.7905 293.718L75.9562 294.409C75.668 294.326 75.3846 294.224 75.1079 294.104L76.0959 293.243ZM74.4347 294.691C74.6629 294.804 74.8958 294.904 75.1325 294.994C74.9472 295.105 74.7571 295.207 74.563 295.299C74.3139 295.288 74.0657 295.265 73.8193 295.228L74.4347 294.691ZM-73.8454 109.114C-73.9407 110.27 -73.7404 111.413 -73.272 112.45L-67.9992 108.083L-70.4877 104.799C-70.6585 104.573 -70.8162 104.34 -70.9603 104.1L-71.2888 104.359C-72.7576 105.52 -73.6891 107.253 -73.8454 109.114ZM-69.8337 104.308L-67.369 107.561L-62.1272 103.219L-64.9359 99.3462L-70.3123 103.589C-70.1685 103.837 -70.0088 104.077 -69.8337 104.308ZM-64.2932 98.8391L-61.496 102.696L-56.4274 98.4983L-59.0615 94.7108L-64.2932 98.8391ZM-58.4198 94.2045L-55.7969 97.976L-50.886 93.9085L-53.3573 90.2097L-58.4198 94.2045ZM-52.7157 89.7034L-50.2552 93.386L-45.4923 89.4411L-47.8118 85.8337L-52.7157 89.7034ZM-47.168 85.3257L-44.859 88.9166L-40.2313 85.0836L-42.4087 81.5702L-47.168 85.3257ZM-41.7634 81.061L-39.5963 84.5577L-35.0963 80.8305L-37.1405 77.4131L-41.7634 81.061ZM-36.4913 76.9008L-34.4573 80.3012L-30.0735 76.6703L-31.9925 73.3509L-36.4913 76.9008ZM-31.3442 72.8392L-29.435 76.1415L-25.1596 72.6003L-26.9609 69.3804L-31.3442 72.8392ZM-26.3122 68.8685L-24.5206 72.071L-20.3458 68.6132L-22.0362 65.4943L-26.3122 68.8685ZM-21.3864 64.9816L-19.7055 68.0829L-15.627 64.7048L-17.2126 61.6881L-21.3864 64.9816ZM-16.559 61.1723L-14.9827 64.1711L93.3372 -25.546L-16.559 61.1723ZM107.977 -37.0983L96.906 -28.3622C99.9622 -30.1145 103.946 -29.473 106.274 -26.677L247.937 143.441C249.182 144.935 249.777 146.822 249.619 148.759C249.453 150.749 248.517 152.547 246.976 153.822L97.3031 277.79L97.9168 278.958L258.314 152.392C259.782 151.232 260.713 149.502 260.867 147.637L260.87 147.638C261.012 145.92 260.5 144.229 259.427 142.876L117.522 -35.9816C115.197 -38.916 110.914 -39.4158 107.977 -37.0983ZM97.2618 279.474L96.6575 278.325L94.9884 279.707L95.581 280.801L97.2618 279.474ZM94.9313 281.313L94.3481 280.238L92.6991 281.603L93.2702 282.624L94.9313 281.313ZM92.6214 283.136L92.0601 282.133L90.4336 283.48L90.9825 284.429L92.6214 283.136ZM90.3317 284.943L89.7928 284.011L88.1884 285.339L88.7145 286.219L90.3317 284.943ZM88.0683 286.729L87.5523 285.866L85.9721 287.175L86.352 287.788C86.393 287.854 86.4348 287.92 86.4774 287.984L88.0683 286.729ZM85.6552 288.215L85.3367 287.701L83.7976 288.976C83.971 289.216 84.1562 289.444 84.3524 289.661L85.8337 288.492C85.7728 288.401 85.7133 288.309 85.6552 288.215ZM83.7075 290.17C83.5167 289.957 83.3355 289.734 83.1645 289.501L81.7561 290.667C81.9549 290.862 82.1635 291.045 82.3811 291.216L83.7075 290.17ZM81.7249 291.734C81.5169 291.563 81.3167 291.381 81.1251 291.19L79.8994 292.205C80.1253 292.356 80.3595 292.495 80.6012 292.621L81.7249 291.734ZM79.9065 293.169C79.6802 293.038 79.4603 292.897 79.2476 292.745L78.2751 293.55C78.5371 293.655 78.8064 293.745 79.0817 293.82L79.9065 293.169ZM78.2243 294.404C78.0016 294.324 77.7833 294.234 77.5698 294.134L76.9793 294.623C77.2137 294.655 77.4497 294.675 77.6862 294.682C77.8685 294.598 78.048 294.506 78.2243 294.404ZM-70.6881 102.841C-71.1345 101.8 -71.324 100.661 -71.2297 99.5164C-71.0648 97.5296 -70.0602 95.7075 -68.4667 94.5083L-68.4126 94.4675C-68.266 94.7257 -68.1046 94.9767 -67.9288 95.2192L-65.4176 98.6819L-70.6881 102.841ZM-64.775 98.1748L-67.2654 94.7406C-67.445 94.4934 -67.6078 94.2362 -67.7534 93.9707L-62.388 89.9276L-59.5304 94.0365L-64.775 98.1748ZM-58.8887 93.5302L-61.7359 89.4362L-56.5069 85.4958L-53.8141 89.5261L-58.8887 93.5302ZM-53.1725 89.0198L-55.8552 85.0047L-50.7961 81.1924L-48.2571 85.1412L-53.1725 89.0198ZM-47.6133 84.6333L-50.1425 80.6999L-45.2383 77.0043L-42.8431 80.8693L-47.6133 84.6333ZM-42.1977 80.3601L-44.5833 76.5107L-39.8251 72.9251L-37.5645 76.7042L-42.1977 80.3601ZM-36.9153 76.1919L-39.1663 72.4287L-34.5408 68.9431L-32.4067 72.6344L-36.9153 76.1919ZM-31.7584 72.1228L-33.8832 68.4475L-29.3809 65.0548L-27.3658 68.6568L-31.7584 72.1228ZM-26.717 68.1449L-28.723 64.559L-24.3351 61.2525L-22.4321 64.7638L-26.717 68.1449ZM-21.7823 64.2511L-23.6764 60.7561L-19.3974 57.5316L-17.6 60.9511L-21.7823 64.2511ZM-16.9464 60.4353L-18.735 57.0325L119.564 -47.184C122.651 -49.508 127.06 -48.894 129.393 -45.817L271.539 141.785C272.581 143.159 273.076 144.863 272.934 146.58L272.931 146.576C272.767 148.559 271.762 150.385 270.172 151.584L98.8321 280.699L98.3013 279.689L258.821 153.027C260.467 151.729 261.509 149.788 261.683 147.701C261.844 145.775 261.267 143.88 260.065 142.366L118.16 -36.4923C115.556 -39.7744 110.758 -40.3324 107.47 -37.7363L-16.9464 60.4353ZM97.6463 280.206L98.1684 281.199L96.4847 282.468L95.9739 281.526L97.6463 280.206ZM95.3241 282.038L95.826 282.964L94.162 284.218L93.6719 283.342L95.3241 282.038ZM93.0231 283.854L93.5041 284.714L91.8624 285.951L91.3934 285.14L93.0231 283.854ZM90.7426 285.654L91.2022 286.449L89.6141 287.645C89.4522 287.426 89.3 287.197 89.1581 286.961L89.135 286.922L90.7426 285.654ZM88.4891 287.432C88.6369 287.675 88.7948 287.91 88.962 288.137L87.4976 289.24C87.3093 289.051 87.1292 288.85 86.9581 288.64L88.4891 287.432ZM86.3166 289.146C86.4833 289.352 86.658 289.548 86.8397 289.736L85.5296 290.723C85.323 290.572 85.1237 290.41 84.9324 290.238L86.3166 289.146ZM84.2806 290.753C84.4636 290.922 84.6536 291.083 84.8499 291.236L83.7414 292.071C83.5133 291.959 83.2913 291.836 83.0761 291.703L84.2806 290.753ZM82.4002 292.236C82.6014 292.371 82.8085 292.497 83.0209 292.614L82.2007 293.232C81.9418 293.166 81.688 293.086 81.4403 292.994L82.4002 292.236ZM80.7046 293.574C80.9035 293.662 81.1063 293.742 81.3126 293.814C81.1419 293.909 80.9684 293.995 80.7927 294.074C80.5736 294.067 80.3539 294.051 80.134 294.025L80.7046 293.574ZM-68.6172 89.9147C-68.7106 91.0474 -68.5338 92.1781 -68.1117 93.2171L-62.855 89.256L-65.37 85.6398C-65.5528 85.3766 -65.7195 85.1039 -65.8696 84.8233C-67.4535 86.0633 -68.4487 87.9034 -68.6172 89.9147ZM-64.7008 85.1729L-62.2029 88.7646L-56.9617 84.8151L-59.8577 80.4807L-65.2041 84.3364C-65.0554 84.6248 -64.8875 84.9043 -64.7008 85.1729ZM-59.1966 80.0039L-56.31 84.324L-51.2394 80.5031L-53.9795 76.2415L-59.1966 80.0039ZM-53.3167 75.7635L-50.5858 80.0106L-45.6706 76.3068L-48.2651 72.1204L-53.3167 75.7635ZM-47.601 71.6414L-45.0156 75.8132L-40.247 72.2198L-42.7051 68.1106L-47.601 71.6414ZM-42.0373 67.629L-39.5882 71.7234L-34.9527 68.2304L-37.2827 64.2002L-42.0373 67.629ZM-36.6165 63.7197L-34.2952 67.7349L-29.7835 64.3351L-31.9931 60.3854L-36.6165 63.7197ZM-31.3267 59.9049L-29.1256 63.8394L-24.7287 60.5262L-26.825 56.6583L-31.3267 59.9049ZM-26.158 56.1773L-24.0701 60.0299L-19.7825 56.799L-21.7719 53.0142L-26.158 56.1773ZM-21.1014 52.5306L-19.1201 56.2998L119.077 -47.8376C122.522 -50.4357 127.445 -49.7492 130.047 -46.3112L272.193 141.291C273.356 142.825 273.91 144.729 273.75 146.644C273.567 148.86 272.441 150.896 270.666 152.235L99.2165 281.43L99.6712 282.295L282.033 150.781C283.748 149.542 284.83 147.625 285.006 145.52C285.148 143.802 284.668 142.089 283.654 140.694L141.267 -55.652C138.928 -58.8786 134.388 -59.6072 131.155 -57.2728L-21.1014 52.5306ZM98.9993 282.78L98.5527 281.93L96.8775 283.193L97.3129 283.996L98.9993 282.78ZM96.6459 284.477L96.2188 283.689L94.5637 284.936L94.7703 285.306C94.8402 285.43 94.9127 285.553 94.9877 285.673L96.6459 284.477ZM94.0588 285.706L93.9058 285.432L92.2902 286.649C92.4374 286.868 92.5937 287.078 92.7584 287.281L94.3242 286.152C94.2323 286.006 94.1438 285.857 94.0588 285.706ZM92.0928 287.761C91.9325 287.562 91.7796 287.356 91.6346 287.143L90.1295 288.278C90.2943 288.461 90.4667 288.637 90.6462 288.804L92.0928 287.761ZM89.9722 289.29C89.8002 289.124 89.6343 288.951 89.4751 288.771L88.1115 289.798C88.2949 289.949 88.4842 290.09 88.6785 290.223L89.9722 289.29ZM87.979 290.728C87.7954 290.593 87.6163 290.452 87.4423 290.303L86.2559 291.197C86.4588 291.313 86.6671 291.421 86.8806 291.52L87.979 290.728ZM86.1305 292.061C85.9331 291.957 85.7401 291.846 85.5518 291.727L84.6143 292.434C84.8464 292.514 85.0833 292.583 85.3245 292.642L86.1305 292.061ZM84.409 293.223C84.2187 293.159 84.0313 293.089 83.8471 293.012L83.2941 293.428C83.4984 293.45 83.7025 293.463 83.9061 293.468C84.0763 293.393 84.2441 293.312 84.409 293.223ZM-65.5437 83.576C-65.9377 82.5425 -66.1002 81.427 -66.0087 80.3162C-65.8411 78.2962 -64.8722 76.4582 -63.3256 75.1835C-63.1726 75.483 -63.001 75.7756 -62.8111 76.0603L-60.3109 79.8023L-65.5437 83.576ZM-59.6498 79.3255L-62.133 75.609C-62.331 75.312 -62.5069 75.0055 -62.6603 74.6909L-57.3417 71.0126L-54.4211 75.5547L-59.6498 79.3255ZM-53.7584 75.0767L-56.6703 70.5483L-51.4687 66.951L-48.6956 71.4256L-53.7584 75.0767ZM-48.0315 70.9467L-50.7961 66.4858L-45.7603 63.0031L-43.1252 67.4084L-48.0315 70.9467ZM-42.4574 66.9267L-45.0841 62.5354L-40.1984 59.1566L-37.6928 63.4907L-42.4574 66.9267ZM-37.0266 63.0102L-39.5241 58.6903L-34.7777 55.4078L-32.3938 59.6691L-37.0266 63.0102ZM-31.7274 59.1886L-34.1034 54.9415L-29.4861 51.7482L-27.2167 55.9356L-31.7274 59.1886ZM-26.5497 55.4546L-28.8114 51.2815L-24.3166 48.173L-22.1551 52.2852L-26.5497 55.4546ZM-21.4845 51.8017L-23.6384 47.704L142.742 -67.3621C144.382 -68.4937 146.364 -68.9247 148.331 -68.5699C150.293 -68.2155 152.002 -67.1201 153.141 -65.4834L295.77 139.603C296.756 141.02 297.223 142.746 297.078 144.459L297.081 144.463C296.896 146.694 295.733 148.703 293.894 149.977L100.443 283.762C100.424 283.726 100.405 283.691 100.386 283.655L100.054 283.024L282.512 151.44C284.422 150.064 285.626 147.933 285.822 145.587C285.98 143.679 285.446 141.771 284.318 140.215L141.93 -56.127C139.325 -59.7178 134.277 -60.5291 130.676 -57.9326L-21.4845 51.8017ZM99.3824 283.509L99.6587 284.034C99.6933 284.1 99.7286 284.166 99.7645 284.231L98.1217 285.367C97.9755 285.157 97.8373 284.94 97.7077 284.717L99.3824 283.509ZM97.0432 285.196C97.1717 285.414 97.3077 285.625 97.4508 285.831L95.9078 286.898C95.7489 286.721 95.5964 286.536 95.4507 286.344L97.0432 285.196ZM94.788 286.822C94.9298 287.01 95.0775 287.191 95.2309 287.366L93.801 288.355C93.6301 288.207 93.4649 288.053 93.3058 287.891L94.788 286.822ZM92.6344 288.375C92.787 288.534 92.9448 288.687 93.1077 288.835L91.8261 289.721C91.6422 289.603 91.4631 289.478 91.2892 289.346L92.6344 288.375ZM90.5997 289.843C90.7636 289.974 90.9319 290.1 91.1044 290.22L90.0242 290.967C89.8247 290.88 89.6284 290.785 89.4359 290.682L90.5997 289.843ZM88.7073 291.208C88.8847 291.312 89.0653 291.411 89.2489 291.503L88.4515 292.055C88.2258 292.003 88.0037 291.942 87.7858 291.872L88.7073 291.208ZM86.982 292.452C87.1523 292.519 87.3251 292.582 87.5004 292.639C87.3452 292.719 87.1876 292.794 87.0281 292.863C86.8378 292.859 86.647 292.849 86.4561 292.831L86.982 292.452ZM-63.4002 70.7176C-63.4922 71.8242 -63.3487 72.9093 -62.9825 73.9278L-57.7805 70.33L-60.2557 66.4806C-60.4501 66.1771 -60.6245 65.8654 -60.7788 65.5464C-62.2906 66.8531 -63.2335 68.6904 -63.4002 70.7176ZM-59.5683 66.0414L-57.1092 69.8657L-51.8965 66.2606L-54.8334 61.5217L-59.9965 64.9522C-60.0375 64.9795 -60.0781 65.0071 -60.1185 65.035C-59.9607 65.3799 -59.7771 65.716 -59.5683 66.0414ZM-54.1527 61.0695L-51.2239 65.7954L-46.1777 62.3053L-48.9749 57.6292L-54.1527 61.0695ZM-48.2907 57.1746L-45.5015 61.8377L-40.6059 58.4518L-43.272 53.8401L-48.2907 57.1746ZM-42.5901 53.387L-39.9316 57.9855L-35.1758 54.6963L-37.7189 50.1504L-42.5901 53.387ZM-37.0371 49.6975L-34.5015 54.23L-29.8752 51.0304L-32.3025 46.5517L-37.0371 49.6975ZM-31.6205 46.0985L-29.2004 50.5637L-24.6971 47.4491L-27.0153 43.0387L-31.6205 46.0985ZM-26.33 42.5834L-24.0189 46.9801L142.275 -68.0313C144.094 -69.289 146.297 -69.7646 148.476 -69.3719C150.658 -68.9752 152.552 -67.7583 153.814 -65.9463L296.442 139.14C297.535 140.712 298.051 142.626 297.893 144.53C297.688 147.005 296.399 149.234 294.358 150.645L100.864 284.465C100.991 284.66 101.126 284.848 101.267 285.031L305.753 149.169C307.719 147.861 308.962 145.76 309.156 143.403L309.153 143.399C309.301 141.661 308.859 139.967 307.886 138.511L165.016 -75.3184C163.871 -77.0248 162.135 -78.1891 160.116 -78.5905C158.098 -78.9918 156.042 -78.5883 154.33 -77.4514L-26.33 42.5834ZM100.582 285.486C100.445 285.307 100.314 285.122 100.189 284.932L98.6195 286.017C98.7593 286.184 98.9047 286.345 99.0555 286.501L100.582 285.486ZM98.3657 286.959C98.2211 286.805 98.0811 286.647 97.9461 286.483L96.4906 287.49C96.6426 287.63 96.799 287.765 96.9594 287.893L98.3657 286.959ZM96.2479 288.366C96.0961 288.237 95.9478 288.104 95.8034 287.965L94.4768 288.883C94.6399 288.997 94.8072 289.106 94.9784 289.21L96.2479 288.366ZM94.2324 289.705C94.0728 289.6 93.9166 289.49 93.764 289.376L92.6164 290.169C92.7947 290.258 92.9765 290.34 93.1617 290.417L94.2324 289.705ZM92.3583 290.95C92.1894 290.869 92.0234 290.783 91.8605 290.692L90.9655 291.311C91.1678 291.371 91.3724 291.424 91.5787 291.468L92.3583 290.95ZM90.5999 292.05C90.4419 292.001 90.2854 291.947 90.1303 291.889L89.6296 292.235C89.8033 292.248 89.9769 292.256 90.1502 292.258C90.3019 292.194 90.4518 292.125 90.5999 292.05ZM-60.4249 64.2589C-60.76 63.2577 -60.8887 62.1981 -60.7992 61.1219C-60.6304 59.088 -59.711 57.2468 -58.2307 55.9116C-58.0746 56.2496 -57.8966 56.58 -57.6969 56.9011L-55.2627 60.8289L-60.4249 64.2589ZM-54.5821 60.3767L-57.0032 56.47C-57.2215 56.1175 -57.4114 55.7528 -57.5723 55.3784C-57.442 55.2839 -57.3083 55.1928 -57.1713 55.1054L-52.3345 52.0128L-49.3935 56.9293L-54.5821 60.3767ZM-48.7094 56.4747L-51.6428 51.5706L-46.489 48.2754L-43.6806 53.1334L-48.7094 56.4747ZM-42.9987 52.6803L-45.8 47.8349L-40.802 44.6393L-38.1178 49.4373L-42.9987 52.6803ZM-37.4361 48.9843L-40.1132 44.1989L-35.2595 41.0956L-32.6924 45.8324L-37.4361 48.9843ZM-32.0103 45.3792L-34.5706 40.6551L-29.8535 37.6391L-27.3964 42.3136L-32.0103 45.3792ZM-26.7111 41.8582L-29.1615 37.1966L165.924 -87.5361C169.61 -89.8928 174.528 -88.8187 176.893 -85.1421L320.004 137.428C320.953 138.903 321.38 140.605 321.234 142.351L321.235 142.348C321.029 144.83 319.709 147.022 317.611 148.364L102.213 286.084C102.068 285.946 101.927 285.803 101.791 285.655L306.197 149.846C308.377 148.398 309.747 146.074 309.965 143.47C310.122 141.544 309.64 139.674 308.564 138.06L165.69 -75.7666C164.431 -77.6581 162.503 -78.9447 160.272 -79.3911C158.041 -79.834 155.766 -79.3893 153.875 -78.1299L-26.7111 41.8582ZM101.101 286.114C101.231 286.259 101.365 286.401 101.504 286.538L100.108 287.43C99.9553 287.315 99.8061 287.195 99.6609 287.07L101.101 286.114ZM98.9577 287.538C99.095 287.661 99.2358 287.78 99.3798 287.896L98.1359 288.691C97.9741 288.599 97.815 288.502 97.6589 288.4L98.9577 287.538ZM96.9237 288.889C97.0687 288.991 97.2162 289.089 97.3661 289.183L96.3051 289.862C96.1306 289.794 95.959 289.72 95.7904 289.642L96.9237 288.889ZM95.0056 290.163C95.1586 290.244 95.3142 290.321 95.4722 290.394L94.7019 290.887C94.5768 290.861 94.4519 290.832 94.3272 290.801C94.26 290.784 94.193 290.766 94.1265 290.747L95.0056 290.163ZM93.2567 291.325C93.3995 291.376 93.544 291.424 93.69 291.468C93.553 291.535 93.4146 291.597 93.2748 291.655C93.1118 291.654 92.949 291.648 92.7867 291.638L93.2567 291.325ZM-58.1974 51.5189C-58.2845 52.5653 -58.1705 53.5994 -57.8661 54.5815C-57.7831 54.5244 -57.6989 54.4686 -57.6136 54.4139L-52.756 51.3082L-55.1384 47.3253C-55.3422 46.9837 -55.5226 46.6323 -55.6792 46.273C-57.1175 47.641 -58.0304 49.5105 -58.1974 51.5189ZM-54.435 46.9027L-52.0643 50.866L-46.9002 47.5642L-49.8442 42.4717L-54.3483 45.2473C-54.5829 45.3919 -54.8088 45.5477 -55.0255 45.7139C-54.8614 46.1218 -54.6644 46.5191 -54.435 46.9027ZM-49.1484 42.043L-46.2111 47.1237L-41.2033 43.9219L-44.0218 38.8839L-49.1484 42.043ZM-43.3264 38.4553L-40.5145 43.4815L-35.6516 40.3723L-38.3518 35.3899L-43.3264 38.4553ZM-37.6564 34.9614L-34.9626 39.9318L-30.2366 36.9102L-32.8256 31.9846L-37.6564 34.9614ZM-32.1273 31.5543L-29.5446 36.4677L165.481 -88.224C169.546 -90.8195 174.973 -89.6372 177.58 -85.5813L320.691 136.989C321.741 138.618 322.211 140.493 322.05 142.418C321.822 145.156 320.365 147.574 318.049 149.056L102.854 286.643C102.989 286.75 103.127 286.853 103.268 286.952L329.464 147.563C331.662 146.208 333.099 143.864 333.313 141.292C333.459 139.546 333.045 137.83 332.12 136.337L188.764 -94.9776C187.619 -96.8292 185.812 -98.1258 183.687 -98.6279C181.565 -99.1295 179.371 -98.7762 177.512 -97.6289L-32.1273 31.5543ZM102.515 287.416C102.383 287.316 102.254 287.213 102.128 287.107L100.843 287.928C100.986 288.015 101.131 288.098 101.279 288.178L102.515 287.416ZM100.488 288.665C100.352 288.584 100.218 288.5 100.087 288.412L98.9864 289.116C99.1402 289.182 99.2957 289.245 99.4528 289.303L100.488 288.665ZM98.5908 289.834C98.4497 289.772 98.3101 289.706 98.1719 289.636L97.3124 290.186C97.4846 290.23 97.6573 290.269 97.8305 290.303L98.5908 289.834ZM96.7832 290.885C96.6561 290.848 96.53 290.808 96.4052 290.766L95.9612 291.05C96.1006 291.057 96.24 291.061 96.3791 291.062C96.5148 291.007 96.6495 290.948 96.7832 290.885ZM-55.3033 44.9056C-55.58 43.942 -55.6804 42.9331 -55.5956 41.9159C-55.4295 39.9016 -54.5371 38.032 -53.1264 36.6358C-52.9684 37.0148 -52.7848 37.3857 -52.576 37.7463L-50.252 41.7664L-54.7759 44.554C-54.9564 44.6653 -55.1323 44.7826 -55.3033 44.9056ZM-49.5562 41.3376L-51.8703 37.3349C-52.1085 36.9222 -52.311 36.4948 -52.477 36.0563C-52.1752 35.8138 -51.8551 35.591 -51.5182 35.3901L-47.3599 32.9169L-44.4197 38.1725L-49.5562 41.3376ZM-43.7243 37.744L-46.6582 32.4996L-41.5612 29.4682L-38.7404 34.673L-43.7243 37.744ZM-38.045 34.2444L-40.8597 29.0509L-35.9138 26.1094L-33.2053 31.2622L-38.045 34.2444ZM-32.507 30.8319L-35.2095 25.6905L189.107 -107.721C191.038 -108.866 193.302 -109.196 195.48 -108.647C197.661 -108.098 199.495 -106.733 200.649 -104.808L344.242 135.247C345.147 136.759 345.549 138.484 345.403 140.234L345.399 140.237C345.176 142.939 343.65 145.377 341.321 146.763L104.433 287.654C104.297 287.585 104.164 287.513 104.032 287.438L329.895 148.257C332.313 146.77 333.893 144.19 334.128 141.362C334.289 139.44 333.834 137.557 332.816 135.913L189.46 -95.3976C188.198 -97.4383 186.211 -98.8631 183.874 -99.4138C181.533 -99.965 179.12 -99.5777 177.08 -98.3155L-32.507 30.8319ZM103.247 287.922C103.367 287.997 103.489 288.071 103.613 288.141L102.587 288.752C102.443 288.702 102.301 288.648 102.161 288.591L103.247 287.922ZM101.319 289.11C101.444 289.169 101.57 289.226 101.698 289.28L100.965 289.716C100.807 289.688 100.65 289.655 100.494 289.618L101.319 289.11ZM99.5489 290.2C99.6597 290.236 99.7712 290.27 99.8833 290.302C99.7604 290.358 99.6364 290.412 99.5115 290.462C99.3865 290.462 99.2614 290.46 99.1361 290.455L99.5489 290.2ZM-53.0015 32.3155C-53.0839 33.3037 -52.9948 34.2859 -52.7432 35.2292C-52.487 35.0378 -52.2196 34.8589 -51.9418 34.6937L-47.758 32.2054L-50.0172 28.167C-50.2304 27.7871 -50.4166 27.396 -50.5754 26.9963C-51.9612 28.4169 -52.8329 30.2909 -53.0015 32.3155ZM-49.3057 27.7672L-47.0563 31.788L-41.9499 28.751L-44.8797 23.3453L-48.6962 25.539C-49.1351 25.7913 -49.5469 26.079 -49.9285 26.3976C-49.7611 26.8674 -49.5532 27.3254 -49.3057 27.7672ZM-44.1723 22.9387L-41.2484 28.3337L-36.2936 25.3868L-39.1099 20.0289L-44.1723 22.9387ZM-38.4 19.6208L-35.5893 24.9679L188.684 -108.421C190.8 -109.681 193.282 -110.041 195.674 -109.436C198.067 -108.835 200.08 -107.338 201.344 -105.224L344.938 134.83C345.929 136.492 346.371 138.385 346.211 140.303C345.966 143.264 344.294 145.938 341.738 147.458L105.342 288.056C105.469 288.104 105.597 288.15 105.726 288.193L353.183 145.959C355.642 144.543 357.253 142.009 357.488 139.182L357.485 139.178C357.628 137.424 357.238 135.69 356.354 134.159L212.519 -114.64C210.135 -118.765 204.829 -120.186 200.694 -117.81L-38.4 19.6208ZM104.806 288.722C104.692 288.675 104.579 288.627 104.467 288.576L103.659 289.057C103.799 289.088 103.939 289.115 104.079 289.14L104.806 288.722ZM102.777 289.669C102.745 289.659 102.712 289.649 102.68 289.639L102.314 289.857C102.421 289.86 102.529 289.862 102.637 289.861C102.747 289.817 102.857 289.771 102.966 289.723C102.903 289.706 102.84 289.688 102.777 289.669ZM-50.1811 25.5585C-50.4099 24.6343 -50.4875 23.6762 -50.4073 22.7153C-50.239 20.6808 -49.3842 18.8022 -48.0212 17.3583C-47.8625 17.7778 -47.6746 18.1884 -47.4582 18.5875L-45.2667 22.6312L-49.1045 24.8374C-49.4823 25.0546 -49.8417 25.2958 -50.1811 25.5585ZM-44.5594 22.2246L-46.741 18.1993C-46.996 17.7286 -47.2078 17.2404 -47.3752 16.7398C-46.9164 16.3429 -46.4132 15.9899 -45.8706 15.6886L-42.4046 13.7608L-39.488 19.3095L-44.5594 22.2246ZM-38.7781 18.9014L-41.6893 13.3629L212.281 -127.899C214.359 -129.055 216.762 -129.331 219.05 -128.685C221.339 -128.039 223.236 -126.538 224.396 -124.467L368.472 133.072C369.336 134.619 369.718 136.363 369.574 138.124C369.33 141.081 367.634 143.712 365.041 145.154L107.208 288.559C107.084 288.539 106.961 288.516 106.838 288.491L353.588 146.66C356.282 145.11 358.042 142.338 358.297 139.245C358.453 137.326 358.03 135.428 357.059 133.751L213.225 -115.047C210.613 -119.561 204.806 -121.122 200.283 -118.519L-38.7781 18.9014ZM105.819 289.077L105.479 289.272C105.567 289.274 105.655 289.274 105.743 289.273C105.849 289.232 105.954 289.189 106.059 289.144C105.979 289.123 105.899 289.1 105.819 289.077ZM-47.8135 13.1184C-47.8894 14.0494 -47.822 14.9792 -47.6165 15.8799C-47.1976 15.5452 -46.7479 15.2428 -46.2704 14.9771L-42.7844 13.0382L-44.9029 9.00773C-45.1216 8.59108 -45.3103 8.16221 -45.4684 7.72406C-46.8075 9.18995 -47.6453 11.0736 -47.8135 13.1184ZM-44.1763 8.63158L-42.0691 12.6404L211.892 -128.606C214.157 -129.865 216.781 -130.171 219.28 -129.462C221.779 -128.756 223.851 -127.121 225.118 -124.858L369.194 132.68C370.138 134.369 370.553 136.276 370.393 138.195C370.125 141.425 368.276 144.294 365.44 145.869L108.672 288.682C108.735 288.682 108.798 288.682 108.861 288.681C109.24 288.537 109.612 288.367 109.974 288.172L376.894 144.353C379.626 142.881 381.409 140.159 381.663 137.069L381.664 137.065C381.811 135.305 381.439 133.548 380.591 131.985L236.274 -134.298C233.877 -138.723 228.314 -140.376 223.876 -137.988L-43.0449 5.83803C-43.6932 6.18662 -44.2881 6.60582 -44.8218 7.08379C-44.6544 7.61451 -44.4388 8.1324 -44.1763 8.63158ZM-45.0524 6.20489C-44.555 5.79501 -44.0135 5.43003 -43.4326 5.11719L223.492 -138.708C228.324 -141.312 234.387 -139.507 236.999 -134.685L381.316 131.597C382.24 133.301 382.639 135.218 382.483 137.137C382.201 140.499 380.26 143.466 377.287 145.067L111.603 288.223C112.102 288.06 112.592 287.854 113.067 287.606L388.749 143.545C391.614 142.049 393.486 139.23 393.753 136.011L393.756 136.011C393.904 134.248 393.544 132.477 392.714 130.898L248.155 -144.125C246.988 -146.342 245.028 -147.974 242.632 -148.721C240.233 -149.469 237.691 -149.239 235.467 -148.077L-40.2183 -4.01961C-43.0806 -2.52035 -44.9519 0.295475 -45.2192 3.51814C-45.295 4.42223 -45.2377 5.32613 -45.0524 6.20489Z" fill="#181818"/>
</svg>
