<svg width="119" height="96" viewBox="0 0 119 96" fill="none" xmlns="http://www.w3.org/2000/svg">
<path d="M113.273 65.2313C112.136 65.5193 109 63.8702 109 63.8702C109 63.8702 111.939 65.8284 112.231 66.9801C112.523 68.1319 110.87 71.2533 110.87 71.2533C110.87 71.2533 112.828 68.3138 113.98 68.0221C115.132 67.7303 118.253 69.3831 118.253 69.3831C118.253 69.3831 115.312 67.4176 115.022 66.2732C114.732 65.1288 116.383 62 116.383 62C116.383 62 114.44 64.9358 113.273 65.2313Z" fill="#ACACAC"/>
<path opacity="0.8" d="M8.5464 83.4625C6.28717 84.0348 1.15572e-05 80.7404 1.15572e-05 80.7404C1.15572e-05 80.7404 5.89013 84.6696 6.4699 86.9584C7.04966 89.2472 3.74045 95.5067 3.74045 95.5067C3.74045 95.5067 7.67152 89.6239 9.96029 89.0441C12.2491 88.4644 18.5067 91.7662 18.5067 91.7662C18.5067 91.7662 12.6258 87.8425 12.0442 85.5464C11.4625 83.2502 14.7662 77 14.7662 77C14.7662 77 10.813 82.8884 8.5464 83.4625Z" fill="#D6B560"/>
<path opacity="0.8" d="M105.546 6.46252C103.28 7.03667 97 3.74044 97 3.74044C97 3.74044 102.883 7.67151 103.463 9.96028C104.042 12.249 100.74 18.5067 100.74 18.5067C100.74 18.5067 104.664 12.6258 106.96 12.0441C109.256 11.4625 115.507 14.7662 115.507 14.7662C115.507 14.7662 109.624 10.8352 109.044 8.54639C108.464 6.25762 111.766 0 111.766 0C111.766 0 107.806 5.89023 105.546 6.46252Z" fill="#D6B560"/>
<path d="M21.2731 15.2313C20.1435 15.5174 16.9999 13.8702 16.9999 13.8702C16.9999 13.8702 19.9394 15.8284 20.2312 16.9801C20.523 18.1319 18.8702 21.2533 18.8702 21.2533C18.8702 21.2533 20.8338 18.3046 21.9782 18.0147C23.1226 17.7248 26.2533 19.3831 26.2533 19.3831C26.2533 19.3831 23.3119 17.4176 23.022 16.2732C22.7321 15.1288 24.3831 12 24.3831 12C24.3831 12 22.4028 14.9451 21.2731 15.2313Z" fill="#ACACAC"/>
<ellipse cx="65.5" cy="52" rx="40.5" ry="40" fill="#2B2B2B"/>
<path d="M65.2094 61.0931L48.5 73.0284V34C48.5 32.8065 48.9741 31.6619 49.818 30.818C50.6619 29.9741 51.8065 29.5 53 29.5H78C79.1935 29.5 80.3381 29.9741 81.182 30.818C82.0259 31.6619 82.5 32.8065 82.5 34V73.0284L65.7906 61.0931C65.6168 60.969 65.3832 60.969 65.2094 61.0931Z" fill="#4E4E4E" stroke="#D6B560" stroke-linecap="round" stroke-linejoin="round"/>
</svg>
